/* XPM */
static char *result[] = {
/* columns rows colors chars-per-pixel */
"48 48 8 1 ",
"  c #121217",
". c #402751",
"X c #579339",
"o c #75A743",
"O c #923BCC",
"+ c #ED49F2",
"@ c #F873FF",
"# c #EBEDE9",
/* pixels */
"XXXXXXXXXXXXXXXXXXXXXXXXXXXXXXXXXXXXXXXXXXXXXXXX",
"XXoooooooooooooooooooooooooooooooooooooooooooooX",
"Xooooooooooooooooooooooooooooooooooooooooooooooo",
"Xooooooooooo.ooooooooooo ooooooooooooooooooooooo",
"Xooooooooooo.ooooooooooo ooooooooooooooooooooooo",
"Xoooooooooooo.oooooooooo ooooooooooooooooooooooo",
"XooooooooooooOooooooooo . oooooooooooooooooooooo",
"XoooooooooooooOoooXXooo O oooooooooooooooooooooo",
"XoooooooooooooOoooXoXoo O oooooooooooooooooooooo",
"XooooooooooooooOooooooo O oooooooooooooooooooooo",
"XooooooooooooooOooooooo O oooooooooooooooooooooo",
"XoooooooooooooooOoooooo @ oooooooooooooooooooooo",
"XoooooooooooooooOoooooo @ oooooooooooooooooooooo",
"XooooooooooooooooOooooo @ oooooooooooooooooooooo",
"XooooooooooooooooOooooo @ ++++++oooooooooooooooo",
"Xooooooooooooooooo+oooo @ +++++++ooooooooooooooo",
"Xooooooooooooooooo+oooo @ ++++++++oooooooooooooo",
"Xoooooooooooooooooo+ooo + +++++++++ooooooooooooo",
"Xoooooooooooooooooo+ooo + ++++++++++oooooooooooo",
"XooooooooooooooooOOO@@+ O ++++++++++ooooooXXoooo",
"XoooooooooooooooOOOO@@  O  +++++++++oooooXoXoooo",
"XooooooooooooooOOOO++@ ### ++++++++ooooooooooooo",
"XooooooooooooooOOOO+  #O O@  +++++oooooooooooooo",
"Xooooooooooooo        @   @       oooooooooooooo",
"Xooooooooo    .O@##++O@   @O+@@@O.    oooooooooo",
"Xooooooooooooo        @   @       oooooooooooooo",
"Xoooooooooooooooo+++  @O O@  ooooooooooooooooooo",
"Xoooooooooooooooo+++++ @@@ OOOoooooooooooooooooo",
"XoooooooXoooooooo+++++  O  OOOoooooooooooooooooo",
"XooooooXoXooooooo++++++ O OOOooooooooooooooooooo",
"Xooooooooooooooooo+++++ @ OOoooooooooooooooooooo",
"Xoooooooooooooooooo++++ @ @ooooooooooooooooooooo",
"Xooooooooooooooooooo+++ @ @ooooooooooooooooooooo",
"Xoooooooooooooooooooooo @ o@oooooooooooooooooooo",
"Xoooooooooooooooooooooo @ o@oooooooooooooooooooo",
"Xoooooooooooooooooooooo @ oo+ooooooooooooooooooo",
"Xoooooooooooooooooooooo @ oo+oooXXoooooooooooooo",
"Xoooooooooooooooooooooo @ ooo+ooXoXooooooooooooo",
"Xoooooooooooooooooooooo O ooo+oooooooooooooooooo",
"Xoooooooooooooooooooooo O oooo+ooooooooooooooooo",
"Xoooooooooooooooooooooo O oooo+ooooooooooooooooo",
"Xoooooooooooooooooooooo O ooooo+oooooooooooooooo",
"Xoooooooooooooooooooooo . ooooo+oooooooooooooooo",
"Xooooooooooooooooooooooo oooooooOooooooooooooooo",
"Xooooooooooooooooooooooo oooooooOooooooooooooooo",
"Xooooooooooooooooooooooo ooooooooOoooooooooooooo",
"XooooooooooooooooooooooooooooooooOoooooooooooooo",
"XXoooooooooooooooooooooooooooooooooooooooooooooX"
};
