/* XPM */
static char *result[] = {
/* columns rows colors chars-per-pixel */
"48 48 8 1 ",
"  c #121217",
". c #402751",
"X c #579339",
"o c #75A743",
"O c #923BCC",
"+ c #ED49F2",
"@ c #F873FF",
"# c #EBEDE9",
/* pixels */
"XXXXXXXXXXXXXXXXXXXXXXXXXXXXXXXXXXXXXXXXXXXXXXXX",
"XXoooooooooooooooooooooooooooooooooooooooooooooX",
"Xooooooooooooooooooooooo ooooooooooooooooooooooo",
"Xooooooooooo.ooooooooooo ooooooooooooooooooooooo",
"Xooooooooooo.ooooooooooo ooooooooooooooooooooooo",
"Xoooooooooooo.ooooooooo . oooooooooooooooooooooo",
"XooooooooooooOooooooooo O oooooooooooooooooooooo",
"XoooooooooooooOoooXXooo O oooooooooooooooooooooo",
"XoooooooooooooOoooXoXoo O oooooooooooooooooooooo",
"XooooooooooooooOooooooo O oooooooooooooooooooooo",
"XooooooooooooooOooooooo @ oooooooooooooooooooooo",
"XoooooooooooooooOoooooo @ oooooooooooooooooooooo",
"XoooooooooooooooOoooooo @ oooooooooooooooooooooo",
"XooooooooooooooooOooooo @ oooooooooooooooooooooo",
"XooooooooooooooooOooooo @ +++++ooooooooooooooooo",
"Xooooooooooooooooo+oooo @ ++++++oooooooooooooooo",
"Xooooooooooooooooo+oooo @ +++++++ooooooooooooooo",
"Xoooooooooooooooooo+ooo + ++++++++oooooooooooooo",
"Xoooooooooooooooooo+ooo O +++++++++ooooooooooooo",
"XoooooooooooooooooOO@@  O  ++++++++oooooooXXoooo",
"XooooooooooooooooOOO@@ ### ++++++++ooooooXoXoooo",
"XoooooooooooooooOOO++ #O O@ ++++++oooooooooooooo",
"XoooooooooooooooOOO+  #   @  ++++ooooooooooooooo",
"Xooooooooooooo        @   @       oooooooooooooo",
"Xooooooooo    .O@##++O@   @O+@@@O.    oooooooooo",
"Xooooooooooooo        @   @       oooooooooooooo",
"Xooooooooooooooooo++  @   @  Ooooooooooooooooooo",
"Xoooooooooooooooo++++ @O O@ OOoooooooooooooooooo",
"XoooooooXoooooooo+++++ @@@ OOooooooooooooooooooo",
"XooooooXoXooooooo+++++  O  Ooooooooooooooooooooo",
"Xoooooooooooooooo++++++ @ OOoooooooooooooooooooo",
"Xooooooooooooooooo+++++ @ @ooooooooooooooooooooo",
"Xoooooooooooooooooo++++ @ @ooooooooooooooooooooo",
"Xooooooooooooooooooo+++ @ o@oooooooooooooooooooo",
"Xoooooooooooooooooooooo @ o@oooooooooooooooooooo",
"Xoooooooooooooooooooooo @ oo+ooooooooooooooooooo",
"Xoooooooooooooooooooooo @ oo+oooXXoooooooooooooo",
"Xoooooooooooooooooooooo O ooo+ooXoXooooooooooooo",
"Xoooooooooooooooooooooo O ooo+oooooooooooooooooo",
"Xoooooooooooooooooooooo O oooo+ooooooooooooooooo",
"Xoooooooooooooooooooooo O oooo+ooooooooooooooooo",
"Xoooooooooooooooooooooo . ooooo+oooooooooooooooo",
"Xooooooooooooooooooooooo oooooo+oooooooooooooooo",
"Xooooooooooooooooooooooo oooooooOooooooooooooooo",
"Xooooooooooooooooooooooo oooooooOooooooooooooooo",
"XooooooooooooooooooooooooooooooooOoooooooooooooo",
"XooooooooooooooooooooooooooooooooOoooooooooooooo",
"XXoooooooooooooooooooooooooooooooooooooooooooooX"
};
