/* XPM */
static char *result[] = {
/* columns rows colors chars-per-pixel */
"48 48 8 1 ",
"  c #121217",
". c #402751",
"X c #579339",
"o c #75A743",
"O c #923BCC",
"+ c #ED49F2",
"@ c #F873FF",
"# c #EBEDE9",
/* pixels */
"XXXXXXXXXXXXXXXXXXXXXXXXXXXXXXXXXXXXXXXXXXXXXXXX",
"XXoooooooooooooooooooooooooooooooooooooooooooooX",
"Xooooooooooooooooooooooo ooooooooooooooooooooooo",
"Xooooooooooo.ooooooooooo ooooooooooooooooooooooo",
"Xooooooooooo.ooooooooooo ooooooooooooooooooooooo",
"Xoooooooooooo.ooooooooo . oooooooooooooooooooooo",
"XooooooooooooOooooooooo O oooooooooooooooooooooo",
"XoooooooooooooOoooXXooo O oooooooooooooooooooooo",
"XoooooooooooooOoooXoXoo O oooooooooooooooooooooo",
"XooooooooooooooOooooooo O oooooooooooooooooooooo",
"XooooooooooooooOooooooo @ oooooooooooooooooooooo",
"XoooooooooooooooOoooooo @ oooooooooooooooooooooo",
"XoooooooooooooooOoooooo @ oooooooooooooooooooooo",
"XooooooooooooooooOooooo @ +++++ooooooooooooooooo",
"XooooooooooooooooOooooo @ ++++++oooooooooooooooo",
"Xooooooooooooooooo+oooo @ +++++++ooooooooooooooo",
"Xooooooooooooooooo+oooo @ ++++++++oooooooooooooo",
"Xoooooooooooooooooo+ooo + +++++++++ooooooooooooo",
"XoooooooooooooooooO+ooo + +++++++++ooooooooooooo",
"XooooooooooooooooOOO@@  O  ++++++++oooooooXXoooo",
"XoooooooooooooooOOOO@@ ### +++++++oooooooXoXoooo",
"XoooooooooooooooOOOO+ #O O@ +++++ooooooooooooooo",
"XooooooooooooooooOO+  #   @  +++oooooooooooooooo",
"Xoooooooooooooo       @   @        ooooooooooooo",
"Xoooooooooo    .O@#++O@   @O+@@@@O.    ooooooooo",
"Xoooooooooooooo       @   @        ooooooooooooo",
"Xoooooooooooooooo+++  @   @  OOooooooooooooooooo",
"Xooooooooooooooo+++++ @O O@ OOOooooooooooooooooo",
"XoooooooXooooooo++++++ @@@ OOOoooooooooooooooooo",
"XooooooXoXoooooo++++++  O  OOooooooooooooooooooo",
"Xooooooooooooooo+++++++ @ Oooooooooooooooooooooo",
"Xoooooooooooooooo++++++ @ @ooooooooooooooooooooo",
"Xooooooooooooooooo+++++ @ @ooooooooooooooooooooo",
"Xoooooooooooooooooo+++o @ o@oooooooooooooooooooo",
"Xoooooooooooooooooooooo @ o@oooooooooooooooooooo",
"Xoooooooooooooooooooooo @ oo+ooooooooooooooooooo",
"Xoooooooooooooooooooooo @ oo+oooXXoooooooooooooo",
"Xoooooooooooooooooooooo O ooo+ooXoXooooooooooooo",
"Xoooooooooooooooooooooo O ooo+oooooooooooooooooo",
"Xoooooooooooooooooooooo O oooo+ooooooooooooooooo",
"Xoooooooooooooooooooooo O oooo+ooooooooooooooooo",
"Xoooooooooooooooooooooo . ooooo+oooooooooooooooo",
"Xooooooooooooooooooooooo oooooo+oooooooooooooooo",
"Xooooooooooooooooooooooo oooooooOooooooooooooooo",
"Xooooooooooooooooooooooo oooooooOooooooooooooooo",
"XooooooooooooooooooooooooooooooooOoooooooooooooo",
"XooooooooooooooooooooooooooooooooOoooooooooooooo",
"XXoooooooooooooooooooooooooooooooooooooooooooooX"
};
