/* XPM */
static char *_751d9eac96345e39bad27e8e9a38ac11jXGi7DLUMIL2QTH[] = {
/* columns rows colors chars-per-pixel */
"64 64 146 2 ",
"   c #191718",
".  c #141C23",
"X  c #1B1C24",
"o  c #1A2125",
"O  c #222020",
"+  c #292425",
"@  c #292528",
"#  c #4F3725",
"$  c #513723",
"%  c #513926",
"&  c #4F3F32",
"*  c #663F23",
"=  c #5D412A",
"-  c #664023",
";  c #6C4426",
":  c #6F4728",
">  c #6A4A2F",
",  c #754A2C",
"<  c #7A4F2C",
"1  c #604731",
"2  c #654A31",
"3  c #694B30",
"4  c #745233",
"5  c #72543D",
"6  c #78563E",
"7  c #825532",
"8  c #8D5D34",
"9  c #8D5E38",
"0  c #905C37",
"q  c #905C38",
"w  c #926237",
"e  c #9D6537",
"r  c #9F6937",
"t  c #916138",
"y  c #9B673C",
"u  c #9E6938",
"i  c #A16B3A",
"p  c #9F6E43",
"a  c #9E734D",
"s  c #A06E43",
"d  c #A57243",
"f  c #A97747",
"g  c #A2774F",
"h  c #AE7A4A",
"j  c #B47E4E",
"k  c #A37751",
"l  c #A27852",
"z  c #A87E57",
"x  c #B67F50",
"c  c #B5804E",
"v  c #AA8056",
"b  c #AF8854",
"n  c #A9815B",
"m  c #B1865C",
"M  c #B68A5B",
"N  c #BB8F5F",
"B  c #B9965F",
"V  c #B48B63",
"C  c #BB8F61",
"Z  c #BB9061",
"A  c #BE956C",
"S  c #C9AC51",
"D  c #D2B954",
"F  c #D7BF59",
"G  c #C49A6B",
"H  c #D3AA7A",
"J  c #D6B47C",
"K  c #E3DC44",
"L  c #E8E443",
"P  c #F4F545",
"I  c #FBFF43",
"U  c #F7F748",
"Y  c #EDD572",
"T  c #EFD971",
"R  c #5E6F8F",
"E  c #5E6F90",
"W  c #64728E",
"Q  c #6A758D",
"!  c #606E90",
"~  c #657290",
"^  c #63759A",
"/  c #67799C",
"(  c #68789C",
")  c #677CAB",
"_  c #697BAD",
"`  c #6C80B4",
"'  c #7286B5",
"]  c #7F8FB8",
"[  c #7E90B7",
"{  c #748ECF",
"}  c #7791D6",
"|  c #7691D8",
" . c #7A97E0",
".. c #7A98E0",
"X. c #7E9BEA",
"o. c #8B8B8C",
"O. c #908D8D",
"+. c #C3A385",
"@. c #CFAE88",
"#. c #D1AC83",
"$. c #DAB285",
"%. c #D6B68E",
"&. c #D9B58E",
"*. c #DEB891",
"=. c #E4BD8C",
"-. c #E9BF8F",
";. c #E5BF90",
":. c #E8BF90",
">. c #EAC883",
",. c #E6C18F",
"<. c #E8C08E",
"1. c #E5C090",
"2. c #E9C290",
"3. c #869ED6",
"4. c #8BA2D9",
"5. c #98A9D4",
"6. c #92A7DB",
"7. c #92AADC",
"8. c #9CAFDC",
"9. c #9CB0DB",
"0. c #839EE2",
"q. c #829FEB",
"w. c #8FA8E3",
"e. c #87A2ED",
"r. c #88A3EA",
"t. c #8BA5EB",
"y. c #89A4EB",
"u. c #8FA9ED",
"i. c #93ADED",
"p. c #95ADED",
"a. c #92ABED",
"s. c #98AFEF",
"d. c #99B1EF",
"f. c #9AB2EE",
"g. c #97B1F0",
"h. c #9CB3F1",
"j. c #A5BAEC",
"k. c #A3BBF1",
"l. c #A0B8F1",
"z. c #A4BBF2",
"x. c #A4BBF2",
"c. c #A8BDF1",
"v. c #ADC1F3",
"b. c #ADC2F1",
"n. c #ADC1F4",
"m. c #ADC1F2",
/* pixels */
"  + + + @ + + + + + + + + + + + + + + + + + + + + + + + + + + + + + + + + + + + + + + + + + + + + + + + + + + + + + + + + + + O ",
"  + O & 6 6 6 6 6 6 6 6 6 6 3 3 3 3 6 6 6 3 3 3 3 3 3 3 3 3 3 3 3 3 3 3 3 3 3 3 3 3 3 3 3 3 3 3 3 3 3 3 3 3 3 3 3 3 3 3 1 o + O ",
"  + X 5 c x j j j j j j j c i u i i x j j d u u u u u u u u u u u u u u u u u u u u u u u u u u u u u u u u u u u u u i t . + O ",
"  + X 5 c x j d p p p p p p w 0 0 w s p p w 8 8 8 8 8 8 8 8 8 8 8 8 8 8 8 8 8 8 8 8 8 8 8 8 8 8 8 8 8 8 8 8 8 8 8 u u i t . + O ",
"  + X 5 c x j ; - * * * * * - - - - * * * - - - - - - - - - - - - - - - - - - - - - - - - - - - - - - - - - - - * w u i t . + O ",
"  + X 5 c c j : - - ; ; ; ; ; ; ; ; ; ; ; ; ; ; ; ; ; ; ; ; ; ; ; ; ; ; ; ; ; ; ; ; ; ; ; ; ; ; ; ; ; ; ; ; - - * w r i t . + O ",
"  + X 5 c c j : - - , 8 8 8 8 8 8 8 8 8 8 8 8 8 8 8 8 8 8 8 8 8 8 8 8 8 8 8 8 8 8 8 8 8 8 8 8 8 8 8 8 8 8 7 - - * w r i t . + O ",
"  + X 5 c c j : - - , 0 9 9 9 9 9 9 9 9 9 9 9 9 9 9 9 9 9 9 9 9 9 9 9 9 9 9 9 9 9 9 9 9 9 9 9 9 9 9 9 9 9 7 - - * t r i t . + O ",
"  + X 5 c c j : - - , 0 q 0 a k l l l l l l l l l l l l l l l l l l l l l l l l l l l l l l l l k g t q 0 7 - - * t r i t . + O ",
"  + X 5 c c j : - - , 0 q 0 l n n n n n n n n n n n n n n n n n n n n n n n n n n n n n n n n n n n t q 0 7 - - * t r i t . + O ",
"  + X 5 c c j : - - , w w w v m m V A A A A A A A A A A A A A A A A A A A A A A A A A A A A V m n n y w w 7 - - * w r i t . + O ",
"  + X 5 c c j : - - < r u u M C Z G 2.<.<.<.2.<.<.<.<.<.<.<.<.<.<.<.<.<.<.<.<.<.<.<.2.<.<.2.H C C N i u u 8 * - * w r i t . + O ",
"  + X 5 j j h : - - < r u r M Z Z G 2.<.<.*.%.%.%.%.%.%.%.%.%.%.%.%.%.%.%.%.%.%.%.%.&.,.<.<.H Z C C i u r 8 * - * w r i t . + O ",
"  + o 2 u u u ; - - < r u r M Z Z G 2.<.<.O.W W W W W W W W W W W W W W W W W W W ~ Q ;.<.<.H Z C C i i r 8 ; - * w r i t . + O ",
"  + o 2 u u u ; - - < r u r M Z Z G 2.<.<.o.E E R R R R R E E R R R R R E E E E E E W ;.<.<.H Z C C i u r 8 - - * t r i t . + O ",
"  + o 2 u u u ; - - < r u r M Z Z G 2.<.<.o.E E ^ 5.8.8.4.} } } 6.8.8.7.} } } _ E E W ;.<.<.H Z C C i u r 8 * - * t r i t . + O ",
"  + o 2 u u u ; - - < r u r M Z Z G 2.<.<.o.E R ( j.v.v.d.X.X.X.k.n.v.k.X.X.X.` E E W ;.<.<.H Z C C i u r 8 * - * t r i t . + O ",
"  + o 2 u u u ; - - < r u r M Z Z G 2.<.<.o.E R ^ w.i.i.p.d.s.s.p.i.p.u.X.X.X.` R E W ;.<.<.H Z C C i u r 8 * - * w r i t . + O ",
"  + o 2 u u u ; - - < r u r M Z Z G 2.<.<.o.E E ^ ..X.X.a.v.v.n.t.X.X.X.X.X.X.` R E W ;.<.<.H Z C C i u r 8 * - * t r i t . + O ",
"  + o 2 u u u ; - - < r u r M Z Z G 2.<.<.o.E R ^ 0.e.e.p.z.z.k.y.X.X.X.e.e.e.` ! E W ;.<.<.H Z C C i u r 8 * - * t r i t . + O ",
"  + o 2 u u u ; - - < r u r M Z Z G 2.<.<.o.E E / j.v.v.d.X.X.X.X.X.X.y.v.v.v.] E E W ;.<.<.H Z Z C i u r 8 * - * t r i t . + O ",
"  + o 2 u u u ; - - < r u r M Z Z G 2.<.<.o.E R / j.v.v.g.X.X.X.X.X.X.y.v.v.v.] R E W ;.<.<.H Z Z C i u r 8 * - * w r i t . + O ",
"  + o 2 u u u ; - - < r u r M Z Z G 2.<.<.o.E E ^ 0.e.e.q.X.X.X.d.j.j.z.v.v.v.] R E W ;.<.<.H Z C C i u r 8 * - * w r i t . + O ",
"  + o 2 u u u ; - - < r u r M Z Z G 2.<.<.o.E R ^  .X.X.X.X.X.X.k.v.v.v.v.v.v.[ E E W ;.<.<.H Z C C i u r 8 * - * t r i t . + O ",
"  + o 2 u u u ; - - < r u r M Z Z G 2.<.<.o.E E ^ ..X.X.t.h.h.f.c.v.v.c.a.a.a.' E E W ;.<.<.H Z C C i u r 8 * - * w r i t . + O ",
"  + o 2 u u u ; - - < r u r M Z Z G 2.<.<.o.E E ^ ..X.X.a.v.v.v.v.v.v.k.X.X.X.` R E W ;.<.<.H Z Z Z i u r 8 - - * t r i t . + O ",
"  + o 2 u u u ; - - < r u r M Z Z G 2.<.<.o.E R ^ { } | 3.9.8.8.8.8.8.7.} } } ) R E W ;.<.<.H Z Z Z i u r 8 ; - * w r i t . + O ",
"  + o 2 u u u ; - - < r u r M Z Z G 2.<.<.o.R R R R R R R R E E E E R R R R R R R E W ;.<.<.H Z C Z i u r 8 * - * t r i t . + O ",
"  + o 2 u u u ; - - < r u r M Z Z G 2.<.<.o.W W W W W W W W W W W W W W W W W W W W Q 1.<.<.H Z C C i u r 8 * - * w r i t . + O ",
"  + o 2 u u u ; - - < r u r M Z Z G 2.<.<.@.+.+.+.+.+.+.+.+.+.+.+.+.+.+.+.+.+.+.+.+.+.<.<.<.H Z C C i u r 8 * - * w r i t . + O ",
"  + o 2 u u u ; - - < r u r M Z Z G 2.<.<.$.#.#.#.#.#.#.#.#.#.#.#.#.#.#.#.#.#.#.#.#.#.<.<.<.H Z C C i u r 8 * - * t r i t . + O ",
"  + o 2 u u u ; - - < r u r M Z Z G 2.<.<.=.=.*.*.*.=.=.=.=.=.=.=.=.=.*.*.*.=.=.=.=.=.<.<.<.H Z C C i u r 8 * - * t r i t . + O ",
"  + o 2 u u u ; - - < r u r M Z Z G 2.<.<.<.<.<.<.<.<.<.<.<.<.<.<.<.<.<.<.<.<.<.<.<.<.<.<.<.H Z C Z i u r 8 * - * t r i t . + O ",
"  + o 2 u u u ; - - < r u r S D D F T T T >.<.<.<.<.<.<.<.<.<.<.<.<.<.<.<.<.<.<.<.<.<.<.<.<.H Z C C i u r 8 * - * w r i t . + O ",
"  + o 2 u u u ; - - < r u e L I I I I I I T -.<.<.<.<.<.<.<.<.<.<.<.<.<.<.<.<.<.<.<.<.<.<.<.H Z C C i u r 8 * - * t r i t . + O ",
"  + o 2 u u u ; - - < r u r K P P U U U U Y :.<.<.<.<.<.<.<.<.<.<.<.<.<.<.<.<.<.<.<.<.<.<.<.H Z C C i u r 8 * - * w r i t . + O ",
"  + o 2 u u u ; - - < r u r b M M B J J J =.<.<.<.<.<.<.<.<.<.<.<.<.<.<.<.<.<.<.<.<.<.<.<.<.H Z C C i u r 8 * - * w r i t . + O ",
"  + o 2 u u u ; - - < r u r z n n V #.#.#.=.<.<.<.<.<.<.<.<.<.<.<.<.<.<.<.<.<.<.<.<.<.<.<.<.H Z C C i u r 8 * - * t r i t . + O ",
"  + o 2 u u u ; - - < r u r m M C A -.=.=.-.<.<.<.<.<.<.<.<.<.<.<.<.<.<.<.<.<.<.<.<.<.<.<.<.H Z C C i u r 8 * - * t r i t . + O ",
"  + o 2 u u u ; - - < r u r M C C G 2.<.<.<.<.<.<.<.<.<.<.<.<.<.<.<.<.<.<.<.<.<.<.<.<.<.<.<.H Z C C i u r 8 * - * t r i t . + O ",
"  + o 2 u u u ; - - < r u r M Z Z G 2.<.<.<.<.<.<.<.<.<.<.<.<.<.<.<.<.<.<.<.<.<.<.<.<.<.<.<.H Z C Z i u r 8 * - * t r i t . + O ",
"  + o 2 u u u ; - - < r u r M Z Z G 2.<.<.<.<.<.<.<.<.<.<.<.<.<.<.<.<.<.<.<.<.<.<.<.<.<.<.<.H Z C C i u r 8 * - * t r i t . + O ",
"  + o 2 u u u ; - - < r u r M Z Z G 2.<.<.<.<.<.<.<.<.<.<.<.<.<.<.<.<.<.<.<.<.<.<.<.<.<.<.<.H Z C C i u r 8 * - * t r i t . + O ",
"  + o 2 u u u ; - - < r u r M Z Z G 2.<.<.<.<.<.<.<.<.<.<.<.<.<.<.<.<.<.<.<.<.<.<.<.<.<.<.<.H Z C C i u r 8 * - * t r i t . + O ",
"  + o 2 u u u ; - - < r u r M Z Z G 2.<.<.<.<.<.<.<.<.<.<.<.<.<.<.<.<.<.<.<.<.<.<.<.<.<.<.<.H Z C C i u r 8 * * * t r i t . + O ",
"  + o 2 u u u ; - - < r u r M Z Z G 2.<.<.<.<.<.<.<.<.<.<.<.<.<.<.<.<.<.<.<.<.<.<.<.<.<.<.<.H Z C C i u r 8 * - * t r i t . + O ",
"  + o 2 u u u ; - - < r u r M Z Z G 2.<.<.<.<.<.<.<.<.<.<.<.<.<.<.<.<.<.<.<.<.<.<.<.<.<.<.<.H Z C C i u r 8 * - * w r i t . + O ",
"  + o 2 u u u ; - - < r u r M Z Z G 2.<.<.<.<.<.<.<.<.<.<.<.<.<.<.<.<.<.<.<.<.<.<.<.<.<.<.<.H Z C C i u r 8 * - * w r i t . + O ",
"  + o 2 u u u ; - - < r u r M Z Z G 2.<.<.<.<.<.<.<.<.<.<.<.<.<.<.<.<.<.<.<.<.<.<.<.<.<.<.<.H Z C C i u r 8 * - * w r i t . + O ",
"  + o 2 u u u ; - - < r u r M Z Z G 2.<.<.<.<.<.<.<.<.<.<.<.<.<.<.<.<.<.<.<.<.<.<.<.<.<.<.<.H Z C C i u r 8 - - * t r i t . + O ",
"  + o 2 u u u ; - - < r u r M Z Z G 2.<.<.<.<.<.<.<.<.<.<.<.<.<.<.<.<.<.<.<.<.<.<.<.<.<.<.<.H Z C C i u r 8 - - * t r i t . + O ",
"  + o 2 u u u ; - - < r u r M Z Z G 2.<.<.<.<.<.<.<.<.<.<.<.<.<.<.<.<.<.<.<.<.<.<.<.<.<.<.<.H Z C C i u r 8 * - * w r i t . + O ",
"  + o 2 u u u ; - - < r u r M Z Z G 2.<.<.<.<.<.<.<.<.<.<.<.<.<.<.<.<.<.<.<.<.<.<.<.<.<.<.<.H Z C C i u r 8 * - * w r i t . + O ",
"  + o 2 u u u ; - - < r u r M Z Z G 2.<.<.<.<.<.<.<.<.<.<.<.<.<.<.<.<.<.<.<.<.<.<.<.<.<.<.<.H Z C C i u r 8 * - * t r i t . + O ",
"  + o 2 u u u ; - - < r u r M Z Z G 2.<.<.<.<.<.<.<.<.<.<.<.<.<.<.<.<.<.<.<.<.<.<.<.<.<.<.<.H Z C C i u r 8 * - * t r i t . + O ",
"  + o 2 u u u ; - - < r u r M Z Z G 2.<.<.<.<.<.<.<.<.<.<.<.<.<.<.<.<.<.<.<.<.<.<.<.<.<.<.<.H Z C C i u r 8 * - * t r i t . + O ",
"  + o 2 u u u ; - - < r u r M Z Z G 2.<.<.<.<.<.<.<.<.<.<.<.<.<.<.<.<.<.<.<.<.<.<.<.<.<.<.<.H Z Z C i u r 8 * - * w r i t . + O ",
"  + o 2 u u u ; - - < r u r M Z Z G 2.<.<.<.<.<.<.<.<.<.<.<.<.<.<.<.<.<.<.<.<.<.<.<.<.<.<.<.H Z Z C i u r 8 * - * t r i t . + O ",
"  + o 2 u u u ; - - < r u r M Z Z G <.-.-.-.-.-.-.-.-.-.-.-.-.-.-.-.-.-.-.-.-.-.-.-.-.-.-.-.H Z C C i u r 8 * - * w r i t . + O ",
"  + o 2 u u u ; - - < r u r M Z Z Z C C Z Z Z Z Z Z Z Z Z Z Z Z Z Z Z Z Z Z Z Z Z Z Z Z Z C Z Z C C i u r 8 * - * w r i t . + O ",
"  + o 2 u u u ; - - < r u r M Z Z Z Z Z Z Z Z Z Z Z Z Z Z Z Z Z Z Z Z Z Z Z Z Z Z Z Z Z Z Z Z Z C C i u r 8 * - * t r i t . + O ",
"  + o 2 u u u ; - - < r u u f f f f f f f f f f f f f f f f f f f f f f f f f f f f f f f f f f f f i u r 8 * - * t r i t . + O ",
"  + o 2 u u u ; - - < r u u u u u u u u u u u u u u u u u u u u u u u u u u u u u u u u u u u u u u u u u 8 * - * w r u w . + O ",
"  + O & 4 4 4 % % % = 4 4 4 4 4 4 4 4 4 4 4 4 4 4 4 4 4 4 4 4 4 4 4 4 4 4 4 4 4 4 4 4 4 4 4 4 4 4 4 4 4 4 > $ % # 3 4 4 3 X + O "
};
