/* XPM */
static char *_f3141b892044262de47f5d64d45f608jXSQ4XCIwiyaU9e4[] = {
/* columns rows colors chars-per-pixel */
"64 64 124 2 ",
"   c #1C1C1C",
".  c #1F2224",
"X  c #262626",
"o  c #292525",
"O  c #2B262A",
"+  c #2C2B2B",
"@  c #322A25",
"#  c #3B2D25",
"$  c #342C2A",
"%  c #3A2C2E",
"&  c #353029",
"*  c #3D312B",
"=  c #353536",
"-  c #373837",
";  c #383837",
":  c #373538",
">  c #373939",
",  c #3B3B3B",
"<  c #512E1A",
"1  c #53341D",
"2  c #4D3425",
"3  c #42332B",
"4  c #4F3C2E",
"5  c #543721",
"6  c #513927",
"7  c #5B3B26",
"8  c #423B34",
"9  c #4A3D32",
"0  c #663F22",
"q  c #654023",
"w  c #684125",
"e  c #684529",
"r  c #694C2F",
"t  c #734A29",
"y  c #694B30",
"u  c #745132",
"i  c #7E5433",
"p  c #7C5836",
"a  c #73543C",
"s  c #78563E",
"d  c #4A4B4F",
"f  c #544D47",
"g  c #4F4E52",
"h  c #585452",
"j  c #5C5953",
"k  c #675645",
"l  c #595C62",
"z  c #5E6065",
"x  c #5E6168",
"c  c #626363",
"v  c #845631",
"b  c #885732",
"n  c #875831",
"m  c #8C5C32",
"M  c #905D34",
"N  c #8E613C",
"B  c #956537",
"V  c #9A6437",
"C  c #9F6937",
"Z  c #936439",
"A  c #9C6639",
"S  c #9F6938",
"D  c #A06937",
"F  c #A06938",
"G  c #946742",
"H  c #976841",
"J  c #9E6D43",
"K  c #976F4C",
"L  c #9B7146",
"P  c #9F784E",
"I  c #866F5F",
"U  c #A16E41",
"Y  c #A97747",
"T  c #A3774C",
"R  c #A1784E",
"E  c #AB794D",
"W  c #B67F4F",
"Q  c #AC7F52",
"!  c #B67F50",
"~  c #847060",
"^  c #B6804F",
"/  c #B98D5E",
"(  c #BB8F61",
")  c #BB9061",
"_  c #C69D6E",
"`  c #CFA778",
"'  c #D0A77A",
"]  c #D0A87A",
"[  c #5D6F8F",
"{  c #5F718D",
"}  c #66769B",
"|  c #7F8390",
" . c #6D81B2",
".. c #968886",
"X. c #9F948D",
"o. c #A1938D",
"O. c #B8A792",
"+. c #A5ACB9",
"@. c #B4B2B3",
"#. c #B4B6B9",
"$. c #DCB382",
"%. c #D7B88E",
"&. c #DCB98E",
"*. c #D8B790",
"=. c #D9B890",
"-. c #D8BA94",
";. c #DBBC9A",
":. c #E7BF8D",
">. c #EABF8E",
",. c #E2BD90",
"<. c #E6C18D",
"1. c #E8C18B",
"2. c #E9C18B",
"3. c #E8C18C",
"4. c #E8C08D",
"5. c #E9C08D",
"6. c #E8C18D",
"7. c #E8C08E",
"8. c #E9C08E",
"9. c #E9C18E",
"0. c #E8C08E",
"q. c #809AE2",
"w. c #819BE6",
"e. c #819CE6",
/* pixels */
"= = = = = = = = = = = = = = = = = = = = = = = = = = = = = = = = = = = = = = = = = = = = = = = = = = = = = = : d +.+.+.l = = = = ",
"o o o o o o o o o o o o o o o o o o o o o o o o o o o o o o o o o o o o o o o o o o o o o o o o o o o o o o O , +.+.+.g X o o o ",
"o $ a s s s s s s s s s a y y y a s s a y y y y y y y y y y y y y y y y y y y y y y y y y y y y y y y y 6 2 2 4 x z z k r y y y ",
"o % E W W W W W W W W W W C S S E W ! W S S S S S S S S S S S S S S S S S S S S S S S S S S S S S S S F t w q 7 X o X u D S S S ",
"o % E W ^ E J J J J J J H m m m A J J J m m m m m m m m m m m m m m m m m m m m m m m m m m Z Z m m m m t t t e * 3 3 p S C S S ",
"o % E W ^ H 0 0 0 0 0 0 0 q q q q 0 0 0 q q q q q q q q q q q q q q q q q q q q q q q q q q q q q q 0 0 n M m M m M M A S S S S ",
"o % E W W H 0 q q q q q q q q q q q q q q q q q q q q q q q q q q q q q q q q q q q q q q q q q q q q 0 v M M M M M M A F F F F ",
"o % E W W H 0 q q 8 , , , , , , , , , , , , , , , , , , , , , , , , , , , , , , , , , , , , , , 9 q q 0 v M M M M M M Q / / / / ",
"o % E W W H 0 q q 8 , , , , , , , , , , , , , , , , , , , , , , , , , , , , , , , , , , , , , , 9 w w w b M m M M M m Q ) ) ) ) ",
"o % E W W H 0 q q 8 , , , , , , , , , , , , , , , , , , , , , , , , , , , , , , , , , , , , , ; j X.X.o.G M M Z L L L _ $.$.$.$.",
"o % E W W H 0 q q 8 , , , , , , , , , , , , , , , , , , , , , , , , , , , , , , , , , , , , , - c #.#.#.K M M Z R R P ] 7.7.7.7.",
"o % E W W H 0 q q 8 , , , , , , = = = = = = = = = = = = = = = = = = = = = = = = = , , , , , , > h ......G M M Z R R P ] 7.7.,.O.",
"o % E W W H 0 q q 8 , , , , , , + o o o o X X X o o o o o o o o X X X X o o o o o = , , , , , , 3 < < < v m M Z R R P ] 7.7.*.[ ",
"o % T W W Z 0 q q 8 , , , , , , + o o o o o o o o o o o o o o o o o o o o o o o o = , , , , , , 8 1 1 1 v m M Z R R P ] 7.7.=.} ",
"o & B F F n 0 q q 8 , , , , , , + o o o o o o o o o o o o o o o o o o o o o o o o = , , , , , , 8 1 1 1 v m M Z R R P ] 7.>.;.q.",
"o & B S F n 0 q q 8 , , , , , , + o o o o o o o o o o o o o o o o o o o o o o o o = , , , , , , 8 1 1 1 v m M Z R R P ] 7.>.;.w.",
"o & B S F n 0 q q 8 , , - + + + X o o o o o o o o o o o o o o o o o o o o o o o o X + + + , , , 8 1 1 1 v m M Z R R P ] 7.>.;.w.",
"o & B S F n 0 q q 8 , , = o o o o o o o o o o o o o o o o o o o o o o o o o o o o o o o o , , , 8 1 1 1 v m M Z R R P ] 7.>.;.w.",
"o & B S F n 0 q q 8 , , = o o o o o o o o o o X X X X X . . X X X X o o o o o o o o o o o , , , 8 1 1 1 v m M Z R R P ] 7.>.;.w.",
"o & B S F n 0 q q 8 , , = o o o o o o o o o o X                     o o o o o o o o o o o , , , 8 1 1 1 v m M Z R R P ] 7.>.;.w.",
"o & B S F n 0 q q 8 , , = o o o o o o o X X X .                     X o X X o o o o o o X > , , 8 1 1 1 v m M Z R R P ' 7.>.;.w.",
"o & B S F n 0 q q 8 , , = o o o o o o o                                     o o o o o o X > , , 8 1 1 1 v m M Z R R P ] 7.>.;.w.",
"o & B S F n 0 q q 8 , , = o o o o o o o                                     o o o o o o X , , , 8 1 1 1 v m M Z R R P ] 7.>.;.w.",
"o & B S F n 0 q q 8 , , = o o o o o o o                                     o o o o o o X , , , 8 1 1 1 v m M Z R R P ] 7.>.;.w.",
"o & B S F n 0 q q 8 , , = o o o o o o o                                     o o o o o o o , , , 8 1 1 1 v m M Z R R P ] 7.7.;.e.",
"o & B S F n 0 q q 8 , , = o o o o o o o                                     o o o o o o o , , , 8 1 1 1 v m M Z R R P ] 7.7.-. .",
"o & B S F n 0 q q 8 , , = o o o o o o o                                     o o o o o o o , , , 8 1 1 1 v m M Z R R P ] 7.7.%.{ ",
"o & B S F n 0 q q 8 , , = o o o o o o o                                     o o o o o o o , , , 8 1 1 1 v m M Z R R P ] 7.<.&.| ",
"o & B S F n 0 q q 8 , , = o o o o o o o                                     o o o o o o o , , , 8 1 1 1 v m M Z R R P ] 7.2.7.2.",
"o & B S F n 0 q q 8 , , = o o o o o o o                                     o o o o o o o , , , 8 1 1 1 v m M Z R R P ] 7.7.7.7.",
"o & B S F n 0 q q 8 , , = o o o o o o o                                     o o o o o o o , , , 8 1 1 1 v m M Z R R P ] 7.7.7.7.",
"o & B S F n 0 q q 8 , , = o o o o o o o                                     o o o o o o o , , , 8 1 1 1 v m M Z R R P ] 7.7.7.7.",
"o & B S F n 0 q q 8 , , = o o o o o o X                                     o o o o o o X , , , 8 1 1 1 v m M Z R R P ] 7.7.7.7.",
"o & B S F n 0 q q 8 , , = o o o o o o X                                     o o o o o o X , , , 8 1 1 1 v m M Z R R P ] 7.7.7.7.",
"o & B S F n 0 q q 8 , , = o o o o o o o                                     o o o o o o o , , , 8 1 1 1 v m M Z R R P ] 7.7.7.7.",
"o & B S F n 0 q q 8 , , = o o o o o o o                                     o o o o o o o , , , 8 1 1 1 v m M Z R R P ] 7.7.7.7.",
"o & B S F n 0 q q 8 , , = o o o o o o o                                     o o o o o o o , , , 8 1 1 1 v m M Z R R P ] 7.7.7.7.",
"o & B S F n 0 q q 8 , , = o o o o o o o                                     o o o o o o o , , , 8 1 1 1 v m M Z R R P ] 7.7.7.7.",
"o & B S F n 0 q q 8 , , = o o o o o o o                                     o o o o o o o , , , 8 1 1 1 v m M Z R R P ] 7.7.7.7.",
"o & B S F n 0 q q 8 , , = o o o o o o o                                     o o o o o o o , , , 8 1 1 1 v m M Z R R P ' 7.7.7.7.",
"o & B S F n 0 q q 8 , , = o o o o o o X                                     o o o o o o X > , , 8 1 1 1 v m M Z R R P ] 7.7.7.7.",
"o & B S F n 0 q q 8 , , = o o o o o o X                                     o o o o o o X > , , 8 1 1 1 v m M Z R R P ] 7.7.7.7.",
"o & B S F n 0 q q 8 , , = o o o o o o o                                     o o o o o o o , , , 8 1 1 1 v m M Z R R P ] 7.7.7.7.",
"o & B S F n 0 q q 8 , , = o o o o o o o                                     o o o o o o o , , , 8 1 1 1 v m M Z R R P ] 7.7.7.7.",
"o & B S F n 0 q q 8 , , = o o o o o o o                                     o o o o o o o , , , 8 1 1 1 v m M Z R R P ] 7.7.7.7.",
"o & B S F n 0 q q 8 , , = o o o o o o o                                     o o o o o o o , , , 8 1 1 1 v m M Z R R P ] 7.7.7.7.",
"o & B S F n 0 q q 8 , , = o o o o o o o                                     o o o o o o o , , , 8 1 1 1 v m M Z R R P ] 7.7.7.7.",
"o & B S F n 0 q q 8 , , = o o o o o o o                                     o o o o o o o , , , 8 1 1 1 v m M Z R R P ] 7.7.7.7.",
"o & B S F n 0 q q 8 , , = o o o o o o o                                     o o o o o o X > , , 8 1 1 1 v m M Z R R P ] 7.7.7.7.",
"o & B S F n 0 q q 8 , , = o o o o o o o                                     o o o o o o X > , , 8 1 1 1 v m M Z R R P ] 7.7.7.7.",
"o & B S F n 0 q q 8 , , = o o o o o o o                                     o o o o o o X , , , 8 1 1 1 v m M Z R R P ] 7.7.7.7.",
"o & B S F n 0 q q 8 , , = o o o o o o o                                     o o o o o o X , , , 8 1 1 1 v m M Z R R P ] 7.7.7.7.",
"o & B S F n 0 q q 8 , , = o o o o o o o                                     o o o o o o o , , , 8 5 5 1 v m M Z R R P ] 7.7.7.7.",
"o & B S F n 0 q q 8 , , = o o o o o o o                                     o o o o o o o , , - c @.@.@.K M M Z R R P ] 7.7.7.7.",
"o & B S F n 0 q q 8 , , = o o o o o o o                                     o o o o o o o , , - c #.#.#.K M M Z R R P ] 7.7.7.7.",
"o & B S F n 0 q q 8 , , = o o o o o o o                                     o o o o o o o , , , f ~ I I N M M Z R R P ] 7.7.7.7.",
"o & B S F n 0 q q 8 , , = o o o o o o o                                     o o o o o o o , , , 9 w w q v M M Z R R P ] 7.7.7.7.",
"o & B S F n 0 q q 8 , , = o o o o o o o                                     o o o o o o o , , , 9 w w 0 v M M Z R R P ] 7.7.7.7.",
"o & B S F n 0 q q 8 , , = o o o o o o o                                     o o o o o o o , , , 9 w w 0 v M M Z R R P ] 7.7.7.7.",
"o & B S F n 0 q q 8 , , = o o o o o o o                                     o o o o o o X , , , 9 w w 0 v M M Z R R R ` 7.:.:.:.",
"o & B S F n 0 q q 8 , , = o o o o o o o                                     o o o o o o X , , , 9 w w 0 v M m m m m m Q ) ( ) ) ",
"o & B S F n 0 q q 8 , , = o o o o o o X                                     o o o o o o o , , , 9 w w 0 b M M M M M m Q ) ) ) ) ",
"o & B S F n 0 q w % + + + o o o o o o o X X X X X X X X X X X X X X X X X X o o o o o o o + + + $ # # # v M M M M M M U Y Y Y Y ",
"o & B S S n 0 q w @ o o o o o o o o o o o o o o o o o o o o o o o o o o o o o o o o o o o o o o o o o . i M M m m M M V C S S S "
};
