/* XPM */
static char *result[] = {
/* columns rows colors chars-per-pixel */
"48 48 16 1 ",
"  c black",
". c #191919",
"X c #2A2A2A",
"o c #2C2C2C",
"O c #343232",
"+ c #393939",
"@ c #444444",
"# c #4A4949",
"$ c #4E4D4D",
"% c #535353",
"& c gray34",
"* c #666363",
"= c #777474",
"- c #A4A4A4",
"; c #BCBCBC",
": c white",
/* pixels */
"::::::::::::::::::::::::::::::::::::::::::::::::",
"::::::::::::::::::::::::::::::::::::::::::::::::",
"::::::::::::::::::::::::::::::::::::::::::::::::",
"::::::::::::::::::::::::::::::::::::::::::::::::",
"::::::::::::::::::::::::::::::::::::::::::::::::",
"::::::::::::::::::::::::::::::::::::::::::::::::",
"::::::::::::::::::::::::::::::::::::::::::::::::",
"::::::::::::::::::::::::::::::::::::::::::::::::",
":::::::::::::::::::          :::::::::::::::::::",
":::::::::::::::::  $$$$$$$$$$  :::::::::::::::::",
":::::::::::::::  $$$$$$$$$$$$$$  :::::::::::::::",
":::::::::::::  $$$$$$$$$$$$$$$$$$  :::::::::::::",
":::::::::::: $$$$$$$$      $$$$$$$$ ::::::::::::",
"::::::::::: $$$$$$$  ------  $$$$$$$ :::::::::::",
":::::::::: $$$$$$& --======-- %$$$$$$ ::::::::::",
"::::::::: $$$$$$& -==========- %%$$$$$ :::::::::",
"::::::::: $$$$$& -====XXXX===:- %%$$$$ :::::::::",
":::::::: $$$$$$ -==-=XXXXXX===#- %%$$$$ ::::::::",
":::::::: $$$$$& -=-=XXXXXXXX=### %$$$$$ ::::::::",
"::::::: $$$  $& -===.XXXXXX.#### &*  $$$ :::::::",
"::::::: $$ @@ & -===.:XXXX:.#### & @@ $$ :::::::",
"::::::: $$ @@ & -#==..:XX:..#### & @@ $$ :::::::",
"::::::: $$$  $& $####..oo..##### &$  $$$ :::::::",
"::::::: $$$$$$$& $####....###+# &$$$$$$$ :::::::",
"::::::: &$$$$$$& ######..####+# &$$$$$$$ :::::::",
"::::::: &$$$$$$$$ #+##....##+# &$$$$$$$$ :::::::",
"::::::: $&$$$$$$$& ##......## &$$$$$$$$$ :::::::",
":::::::: $&$$$$$$$$ +####### &$$$$$$$$$ ::::::::",
":::::::: $&$$$  $$$$        &$$$  $$$$$ ::::::::",
"::::::::: $&$ @@ $$$$$&&&&&&$$$ ;; $$& :::::::::",
"::::::::: $$& @@ $$$$$$$$$$$$$$ ;; &$$ :::::::::",
":::::::::: O&$  $$$$$$$$$$$$$$$$  $@@ ::::::::::",
"::::::::::: O@@&&$$$$$$  $$$$$&&&$@O :::::::::::",
":::::::::::: OO@@&&$$$ @@ $&&&@@@OO ::::::::::::",
":::::::::::::  OO$@&&$ @@ &@@@@OO  :::::::::::::",
":::::::::::::::  OO@@@@  @@OOOO  :::::::::::::::",
":::::::::::::::::  OOOOOOOOOO  :::::::::::::::::",
":::::::::::::::::::          :::::::::::::::::::",
"::::::::::::::::::::::::::::::::::::::::::::::::",
"::::::::::::::::::::::::::::::::::::::::::::::::",
"::::::::::::::::::::::::::::::::::::::::::::::::",
"::::::::::::::::::::::::::::::::::::::::::::::::",
"::::::::::::::::::::::::::::::::::::::::::::::::",
"::::::::::::::::::::::::::::::::::::::::::::::::",
"::::::::::::::::::::::::::::::::::::::::::::::::",
"::::::::::::::::::::::::::::::::::::::::::::::::",
"::::::::::::::::::::::::::::::::::::::::::::::::",
"::::::::::::::::::::::::::::::::::::::::::::::::"
};
