/* XPM */
static char *result[] = {
/* columns rows colors chars-per-pixel */
"48 48 19 1 ",
"  c #10141F",
". c #151D28",
"X c #19332D",
"o c #172038",
"O c #202E37",
"+ c #411D31",
"@ c #752438",
"# c #25562E",
"$ c #253A5E",
"% c #394A50",
"& c #577277",
"* c #A53030",
"= c #468232",
"- c #579339",
"; c #75A743",
": c #3C5E8B",
"> c #4F8FBA",
", c #C7CFCC",
"< c #EBEDE9",
/* pixels */
"------------------------------------------------",
"--;;;;;;;;;;;;;;;;;;;;;;;;;;;;;;;;;;;;;;;;;;;;;-",
"-;;;;;;;;;;;;;;;;;;;;;;;;;;;;;;;;;;;;;;;;;;;;;;;",
"-;;;;;;;;;;;;;;;;;;;;;;;;;;;;;;;;;;;;;;;;;;;;;;;",
"-;;;;;;;;;;;;;;;;;;;;;;;;;;;;;;;;;;;;;;;;;;;;;;;",
"-;;;;;;;;;;;;;;;;;;;;;;;;;;;;;;;;;;;;;;;;;;;;;;;",
"-;;;;;;;;;;;;;;;;;;;;;;;;;;;;;;;;;;;;;;;;;;;;;;;",
"-;;;;;;;;;;;;;;;;;--;;;;;;;;;;;;;;;;;;;;;;;;;;;;",
"-;;;;;;;;;;;;;;;;<<<<<<<<<<<<<;;;;;;;;;;;;;;;;;;",
"-;;;;;;;;;;;;;;;<<ooooooooooo<<;;;;;;;;;;;;;;;;;",
"-;;;;;;;;;;;;;;;<o ::::::::: o<;;;;;;;;;;;;;;;;;",
"-;;;;;;;;;;;;;;;< o>>>>>>>>>o <;;;;;;;;;;;;;;;;;",
"-;;;;;;;;;;;;;<<< $ooooooooo$ <<<;;;;;;;;;;;;;;;",
"-;;;;;;;;;;;;;<oo $o#######o$ oo<;;;;;;;;;;;;;;;",
"-;;;;;;;;;;;;;<o$$o#========o$$o<;;;;;;;;;;;;;;;",
"-;;;;;;;;;;;;;<o::o   ===   o::o<;;;;;;;;;;;;;;;",
"-;;;;;;;;;;;;;< >>#    =    #>> <;;;;;;;;;;;;;;;",
"-;;;;;;;;;;;;;< $$ #   #   # $$ <;;;;;;;;;;;;;;;",
"-;;;;;;;;;;;;;<  $ ==  #  == $  <;;;;;;;;;;;;;;;",
"-;;;;;;;;;;;;;<<   X==;;;==X   <<;;;;;;;;;--;;;;",
"-;;;;;;;;;;;;;;<<<<XX==== XX<<<<;;;;;;;;;-;-;;;;",
"-;;;;;;;;;;;;;;;;;<<X=   =X<<;;;;;;;;;;;;;;;;;;;",
"-;;;;;;;;;;;;;;;;<<<XX===XX<<<;;;;;;;;;;;;;;;;;;",
"-;;;;;;;;;;;;;;;<<   XXXXX   <<;;;;;;;;;;;;;;;;;",
"-;;;;;;;;;;;;;;<< .OO.###.OO. <<;;;;;;;;;;;;;;;;",
"-;;;;;;;;;;;;;;< .OOOO...OOOO. <;;;;;;;;;;;;;;;;",
"-;;;;;;;;;;;;;;< OOOOOOOOOOOOO <;;;;;;;;;;;;;;;;",
"-;;;;;;;;;;;;;;< O .OOO<OOO. O <;;;;;;;;;;;;;;;;",
"-;;;;;;;-;;;;;<< O  OO,<,OO  O <<;;;;;;;;;;;;;;;",
"-;;;;;;-;-;;<<< ..  OOOOOOO  .. <<<;;;;;;;;;;;;;",
"-;;;;;;;;<<<<  ## < .O,<,O. < ##  <<<<;;;;;;;;;;",
"-;;;;;;;;<   ===X <  OOOOO  < X===   <;;;;;;;;;;",
"-;;;;;;;;< X=#=#    . ...      #=#=X <;;;;;;;;;;",
"-;;;;;;;;<< #X#  +@@++    @**@  #X# <<;;;;;;;;;;",
"-;;;;;;;;;<<    ++    @*******@    <<;;;;;;;;;;;",
"-;;;;;;;;;;<<<<   @********@@@ + <<<<<;;;;;;;;;;",
"-;;;;;;;;;;<     +@*****@@@   ++     <;;;;;;;;;;",
"-;;;;;;;;;;< O&O   ++@@    ++@   .%. <;;;;;;;;;;",
"-;;;;;;;;;;<< O&&O     <<      .%%. <<;;;;;;;;;;",
"-;;;;;;;;;;;<<     <<<<<<<<<<<     <<;;;;;;;;;;;",
"-;;;;;;;;;;;;<<<<<<<=========<<<<<<<;;;;;;;;;;;;",
"-;;;;;;;;;;;;;;===================;;;;;;;;;;;;;;",
"-;;;;;;;;;;;;;=====================;;;;;;;;;;;;;",
"-;;;;;;;;;;;;;=====================;;;;;;;;;;;;;",
"-;;;;;;;;;;;;;;===================;;;;;;;;;;;;;;",
"-;;;;;;;;;;;;;;;=================;;;;;;;;;;;;;;;",
"-;;;;;;;;;;;;;;;;;;;=========;;;;;;;;;;;;;;;;;;;",
"--;;;;;;;;;;;;;;;;;;;;;;;;;;;;;;;;;;;;;;;;;;;;;-"
};
