/* XPM */
static char *result[] = {
/* columns rows colors chars-per-pixel */
"48 48 2 1 ",
"  c #579339",
". c #75A743",
/* pixels */
"                                                ",
"  ............................................. ",
" ...............................................",
" ...............................................",
" ...............................................",
" ...............................................",
" ...............................................",
" .................  ............................",
" ................. . ...........................",
" ...............................................",
" ...............................................",
" ...............................................",
" ...............................................",
" ...............................................",
" ...............................................",
" ...............................................",
" ...............................................",
" ...............................................",
" ...............................................",
" .........................................  ....",
" ........................................ . ....",
" ...............................................",
" ...............................................",
" ...............................................",
" ...............................................",
" ...............................................",
" ...............................................",
" ...............................................",
" ....... .......................................",
" ...... . ......................................",
" ...............................................",
" ...............................................",
" ...............................................",
" ...............................................",
" ...............................................",
" ...............................................",
" ...............................  ..............",
" ............................... . .............",
" ...............................................",
" ...............................................",
" ...............................................",
" ...............................................",
" ...............................................",
" ...............................................",
" ...............................................",
" ...............................................",
" ...............................................",
"  ............................................. "
};
