/* XPM */
static char *result[] = {
/* columns rows colors chars-per-pixel */
"48 48 12 1 ",
"  c #0B170A",
". c #341C27",
"X c #19332D",
"o c #602C2C",
"O c #25562E",
"+ c #884B2B",
"@ c #AD7757",
"# c #468232",
"$ c #579339",
"% c #75A743",
"& c #A8CA58",
"* c #D0DA91",
/* pixels */
"$$$$$$$$$$$$$$$$$$$$$$$$OOOOO$%%OOO$OOO$$$$$$$$$",
"$$%%%%%%%%%%%%%%OOOX%%%%O%%%O%%O&&OO&&OO%%%%%%%$",
"$%%%%%%%%%OOOOOOO%%XXXX%X%&&%OO%&&O&&&%OO%%%%%%%",
"$%%%%%%XXXX#&%OO#%%XOOOXX%&&&%%%%%%&&%%%O%%%%%%%",
"$%%%%XXX%%#%%%%%%%%XOOXXX%%&&%&&%&&%%%%%O%%%%%%%",
"$%%%%XOX#&#%%%@@%%OXXXX%%%%%%&&&%&&&%&&OX%%%%%%%",
"$%%%%XOX&&&@O&@@%@@%%XX%%%&&%&&%%%&&%###XXX%%%%%",
"$%%%%XOX&&@&&&@%@@@%%XXO#&&&%%%%###%#**#XOX%%%%%",
"$%%%XXXOO@####%%@@%%OOOX%&&%%&&%#**%&**OXOX%%%%%",
"$%%X&%&&@&#**#@@%%OOOO%%%%%%&&&%#***&&&OXXXX%%%%",
"$%%X#&&&%&&***&@@%@#OX%%%%%%&&@@%#**%&&X%%%O%%%%",
"$%%X%&&@@%&&**&&@%@#OX##%%%@@%@@%@@%@@O%%%%OO%%%",
"$XXXOO@@&&%%@@&&@%OXXXX%%%%@@@%%%###@@%&&%%%O%%%",
"$X#%%&&@&&&@&&@@%@&X%%#%%%%%@@%@@#**#%&&&%&&O%%%",
"$X###&&%%&&@&&&@@*&X%##%%###%%@@&#**#%&&%&&&X%%%",
"$XO%&&%%%@@%%&&#**&XOX#%%##@@%@@&&***%@@@&&OXXX%",
"$%XX%%%###%%@@%#**#OX######@@%%%%&&*&&%&&%X%%%X%",
"$%XX%%&**#%&&@%####OX######@%%@@%@@&&&@&&&%&&&X%",
"$XXX%%&**#&&&%&&@##OXX#####%%@@@&&@&&@###&%&&&X%",
"$X%%&&%&#%&&%&&&###OOX#########&&&%%%%#**#%&&&X%",
"$X%%&&&%%%%%%&####OXXXX##%%###%&&%%&&%&***#&&%X%",
"$X%%%&&%&&%&######OX%%###%%%##%%%#&&&@%&**&&&XXX",
"XXXX%%%&&&%&#**###OX#%%###%%##%%%%&&&&&&&&&&&&&X",
"X%%%&&%&&%%%&***##OXX#########%%%%@@&&&&&&&&&&&X",
"X%%&&&%%%%&&%%**OOOOXXX########%%%@@@&&&&&&&&@%X",
"XX%&&%%&&%&&%###OOOXXX##%%#######%%@@%@&&&&&&XXX",
"$XX#%%%%&%%%%###OOOXX###%%%##%%%%%%%%@&&&&&&&XX%",
"$X##%#&&%%%#######OOX####%%##%%%%%@@%@&&&@&&&#XX",
"$X##%#&&&%%###OOOOOOXX########%%%@@@%%%&@@%&&&OX",
"$X#####&&%####OOOOOOOOX#########%@@%%@@%@@OOOOOX",
"$X#############OOOOX###########%%%%%@@@%%@OOOXXX",
"XXXX#############OOX###########%%%#%@@%%%%%OXXXX",
" %%%#######OO####OOXX##########%%###%%%%%%%%OOOX",
" %%OO##OO##OOO#OOOOXXXX########%%#####%O%%%%OOOX",
"  OOO#OOO###OOOOOOOOXX################%OOOOOOOX ",
"$ OX#####OO##OOOXXOXXX##X#############%%#OOOOO %",
"$ OOOOOOOOOOOOOOXXXXXX##XX###O#####O#####OOOO  %",
"$  O OOXXXOXOOOXXOXXXXXXXX##OOO####OXXOXXXOOXX %",
"$%%  XXXXXXXXXXXXOXXXXXXXX##OOO####OXXOXXXOOXX %",
"$%%% XX   XXXXXXXX XXXXXXX##OOXXXOOXXXOXXXXO  %%",
"$%%%      XXX XXXX    XXXXXXXOXXX   XXOXXXXX#%%%",
"$%%%%%%   XX   XXX   XXXX XXXXXXXX  XOO OX  #%%%",
"$%%%%% .  XX .    ##  X   XX XXXXXX XXO   ###%%%",
"$%%%%% o     .. #####   #    X XXX .    #####%%%",
"$%%%% o+o...oo. ########### oo.   ... ######%%%%",
"$%%%% o+++o.oo.########### o++o.   oo #####%%%%%",
"$%%%%# o+ooo.. ########### ++oo ##########%%%%%%",
"$$%%%%%%%%%%%%%%%%%%%%%%%%%%%%%%%%%%%%%%%%%%%%%$"
};
