/* XPM */
static char *result[] = {
/* columns rows colors chars-per-pixel */
"48 48 8 1 ",
"  c #121217",
". c #402751",
"X c #579339",
"o c #75A743",
"O c #923BCC",
"+ c #ED49F2",
"@ c #F873FF",
"# c #EBEDE9",
/* pixels */
"XXXXXXXXXXXXXXXXXXXXXXXXXXXXXXXXXXXXXXXXXXXXXXXX",
"XXoooooooooooooooooooooo oooooooooo+++++oooooooX",
"Xoo.oooooooooooooooooooo oooooooo+++++++++oooooo",
"Xoo..oooooooooooooooooo . ooooo+++++++++++++oooo",
"Xooo.Oooooooooooooooooo + oooo+++++++++++++++ooo",
"XooooOOooooooooooooo    O   oo+++++++++++++++ooo",
"XoooooOOooooooooo   ####++##   +++++++++++++++oo",
"Xoooooo++OOOOOO  ###        ###  +++++++++++++oo",
"XooooooO++OOOO ###            #++ +++++++++++++o",
"XooooOOOOOO   ##                ++  +++++++++++o",
"XoooOOOOOOOO##                    ++ ++++++++++o",
"XoooOOOOO O##                      ++ +++++++++o",
"XooOOOOOO ##                        ++ ++++++++o",
"XooOOOOOO #                          + +++++++oo",
"XoOOOOOO #                            + ++++++oo",
"XoOOOOO ##                            ++ ++++ooo",
"XoOOOOO #                              + ++++ooo",
"XoOOOO ##                              ++ ++oooo",
"XoOOOO #                                + oooooo",
"XooOOO #                                + XXoooo",
"XooOO #                                  + Xoooo",
"XoooO #                                  + ooooo",
"XoooO #                                  O ooooo",
"Xoo   #                                  O   ooo",
"X  .+O#                                  OO@.  o",
"Xoo   +                                  O   ooo",
"Xoooo +                                  O Ooooo",
"Xoooo +                                  O OOooo",
"Xooooo +                                O OOOooo",
"Xooooo +                                O OOOOoo",
"Xooooo ++                              OO OOOOoo",
"Xoooooo +                              O OOOOOoo",
"Xoooo++ ++                            OO OOOOOoo",
"Xooo++++ +                            O OOOOOooo",
"Xooo+++++ +                          O OOOOOOooo",
"Xoo++++++ ++                        OO OOOOOoooo",
"Xoo+++++++ ++                      OO. OOOoooooo",
"Xoo++++++++ ++                    OO...ooooooooo",
"Xoo+++++++++  ++                OO   ..Ooooooooo",
"Xooo++++++++++ +++            OOO oooooO+ooooooo",
"Xooo++++++++++o  OOO        OOO  ooooooo++oooooo",
"Xoooo++++++++oooo   OOOOOOOO   oooooooooo++ooooo",
"Xoooooo++++ooooooooo    O   oooooooooooooo++oooo",
"Xoooooooooooooooooooooo @ oooooooooooooooooOOooo",
"Xoooooooooooooooooooooo . ooooooooooooooooooOOoo",
"Xooooooooooooooooooooooo ooooooooooooooooooooooo",
"Xooooooooooooooooooooooo ooooooooooooooooooooooo",
"XXoooooooooooooooooooooooooooooooooooooooooooooX"
};
