/* XPM */
static char *result[] = {
/* columns rows colors chars-per-pixel */
"48 48 13 1 ",
"  c black",
". c gray3",
"X c #101010",
"o c #181818",
"O c #202020",
"+ c #282828",
"@ c gray19",
"# c gray22",
"$ c gray25",
"% c #484848",
"& c #505050",
"* c #606060",
"= c white",
/* pixels */
"================================================",
"================================================",
"============================ ..=================",
"=============================== X===============",
"================================.===============",
"============================  ==================",
"=====================   =====..@ ===============",
"====================  ========X. .==============",
"=============================== .XX=============",
"=================   ============  %=============",
"=========     ==..OXX@Oo...====== XX============",
"======XOo+Oo@XX#   o...oXO  O === o ============",
"=====X..   X..oXXo@         .  ===X ============",
"====.  =====..              .   == XO===========",
"===   =======O*                  = OX===========",
"===  ========$.                    .X===========",
"===  =======.                       @===========",
"=== ======= X                       ============",
"===========X          o            +o===XX======",
"= ======== +         X. .X         XX====X======",
"=  ======= X         .. ...         ..===o======",
"== ======= .         X. .  X        ..X==X======",
"========== .         O .o  .         O.=========",
"==========Xo        oX.%.o  ..O      X.=========",
"========= X.       .XX.@OoX O.X    . +=====.  ==",
"======== XXX       X  X@&#Xo.      oO.======= ==",
"======== X.+X      O  .o&#X...     .X===========",
"========++o .    XoXX. $O    O.    ..===========",
"========.XX  X    X   .            X.=======.===",
"=========X+  .    .   X            .=======o#===",
"===========X X     X..            + ====== X#===",
"=== =======O .     .              .======  X====",
"=== ======= X X                  .  .==    =====",
"=== =======.. .                 O   .     .=====",
"====  =====XO#                  X.o .   X=======",
"===== =====. X.=Oo.ooX          XX @#O@=========",
"===========o .=== .   .        @+===============",
"============ .======  .o    @X$=================",
"============X. =======  XoX.O===================",
"============X. =========.  =====================",
"=============X.=============X ==================",
"==============O =========    ===================",
"===============. ===============================",
"================  ==============================",
"===================== ==========================",
"==================   ===========================",
"================================================",
"================================================"
};
