/* XPM */
static char *result[] = {
/* columns rows colors chars-per-pixel */
"48 48 13 1 ",
"  c black",
". c gray3",
"X c #101010",
"o c #181818",
"O c #202020",
"+ c #282828",
"@ c gray19",
"# c gray22",
"$ c gray25",
"% c #484848",
"& c #505050",
"* c #686868",
"= c white",
/* pixels */
"================================================",
"================================================",
"=======  =======================================",
"======  ========================================",
"===== ==========================================",
"================================================",
"===========.X..Oo+oO ===========================",
"=========#++O+oXOOoo@O+======   ================",
"==============        X..======  ===============",
"================XO      O+X===== ===============",
"==================X     O.XX====X=====  ========",
"=================..      .  .o=========  =======",
"================..        .  XX=========  ======",
"=============== XX         X  X.====.&==========",
"==============..  ..        . .. ==== @=========",
"=========  ==X .    O       .. .. ====.o========",
"========  == X.               X .X === .o=======",
"=======  ==  #o                .+ OX=== o@======",
"======= === Xo                    .+===  %======",
"======  ==o$ .                     #===  O======",
"====== ==O%o.         O            +.==  o======",
"=========X%+X         ..            .==  o======",
"======== O# .        .oo            .==  O======",
"======= XOX .        X.+X           X== .=======",
"======.o$.  X       .o%*%&o         .==.X=======",
"======++ X  .       XXO.$@X         X= . =======",
"======Xo +Xo          Xoo .o         $ X =======",
"=====+XX = O          o.            XO .========",
"=====  .===.                        O...========",
"=====  .===#                       XX..=========",
"=====  o===o.                      +..==========",
"=====. o====+ X                    .============",
"=====. X=====oOX                  ==============",
"=====X .======..                 ===============",
"======.o======= .               ========  ======",
"================.           .$o=======  ========",
"================O.         .O.=======  =========",
"=== ============  O.X+oX+o+=====================",
"==== ============       ========================",
"====  ===========X      =======%================",
"===================  . ======o*O=  =============",
"====================%.  OoXOO@=== ==============",
"=====================X..  %o====  ==============",
"===============================  ===============",
"=============================   ================",
"============================= ==================",
"================================================",
"================================================"
};
