/* XPM */
static char *result[] = {
/* columns rows colors chars-per-pixel */
"48 48 7 1 ",
"  c #121217",
". c #402751",
"X c #579339",
"o c #75A743",
"O c #923BCC",
"+ c #ED49F2",
"@ c #EBEDE9",
/* pixels */
"XXXXXXXXXXXXXXXXXXXXXXXX XXXXXXXXXXXXXXXXXXXXXXX",
"XXoooooooooooooooooooooo ooooooooo+++++ooooooooX",
"Xoo.ooooooooooooooooooo . oooooo+++++++++ooooooo",
"Xoo..oooooooooooooooooo O oooo+++++++++++++ooooo",
"Xooo.Oooooooooooooooooo + ooo+++++++++++++++oooo",
"XooooOOooooooooooooo    O   o+++++++++++++++oooo",
"XoooooOOooooooooo   @@@@++@@   ++++++++++++++ooo",
"Xoooooo++OOOOoO  @@@        @@@  ++++++++++++ooo",
"XoooooOO++OOOO @@@            @++ ++++++++++++oo",
"XoooOOOOOOO   @@                ++  ++++++++++oo",
"XooOOOOOOOOO@@                    ++ +++++++++oo",
"XooOOOOOO O@@                      ++ ++++++++oo",
"XoOOOOOOO @@                        ++ +++++++oo",
"XoOOOOOOO @                          + ++++++ooo",
"XOOOOOOO @                            + +++++ooo",
"XOOOOOO @@                            ++ +++oooo",
"XOOOOOO @                              + +++oooo",
"XOOOOO @@                              ++ +ooooo",
"XOOOOO @                                + oooooo",
"XoOOOO @                                + XXoooo",
"XoOOO @                                  + Xoooo",
"XooOO @                                  + ooooo",
"XooOO @                                  O ooooo",
"Xo    @                                  O    oo",
"  .O+O@                                  OO+O.  ",
"Xo    +                                  O    oo",
"Xoooo +                                  O ooooo",
"Xoooo +                                  O Ooooo",
"Xooooo +                                O OOOooo",
"Xooooo +                                O OOOooo",
"Xooooo ++                              OO OOOOoo",
"Xooooo+ +                              O OOOOOoo",
"Xooo+++ ++                            OO OOOOOoo",
"Xoo+++++ +                            O OOOOOOoo",
"Xoo++++++ +                          O OOOOOOooo",
"Xo+++++++ ++                        OO OOOOOOooo",
"Xo++++++++ ++                      OO. OOOOOoooo",
"Xo+++++++++ ++                    OO...OOOoooooo",
"Xo++++++++++  ++                OO   ..Ooooooooo",
"Xoo++++++++++o +++            OOO oooooO+ooooooo",
"Xoo++++++++++oo  OOO        OOO  ooooooo++oooooo",
"Xooo++++++++ooooo   OOOOOOOO   oooooooooo++ooooo",
"Xooooo++++oooooooooo    O   oooooooooooooo++oooo",
"Xoooooooooooooooooooooo + oooooooooooooooooOOooo",
"Xoooooooooooooooooooooo O ooooooooooooooooooOOoo",
"Xoooooooooooooooooooooo . oooooooooooooooooooooo",
"Xooooooooooooooooooooooo ooooooooooooooooooooooo",
"XXoooooooooooooooooooooo ooooooooooooooooooooooX"
};
