/* XPM */
static char *result[] = {
/* columns rows colors chars-per-pixel */
"48 48 12 1 ",
"  c black",
". c gray3",
"X c #101010",
"o c #181818",
"O c #202020",
"+ c #282828",
"@ c gray19",
"# c gray22",
"$ c gray25",
"% c #484848",
"& c #505050",
"* c white",
/* pixels */
"************************************************",
"************************************************",
"************************************************",
"************************************************",
"***********************...**********************",
"**********************  ************************",
"**************************+*********************",
"***************************OO*******************",
"**********  ****************o$******************",
"********  ***********  ****** + ****************",
"******** *************    **** X ***************",
"*******************************.+.**************",
"***********  X       ****    ** Xo**************",
"********* .+.X@.+  O          *XX **************",
"********XXXX.+OX  X .         *Xo@**************",
"**  ***oo..X.***X.   .         ..Xo*************",
"** ***o.  *****@..X..XO.o.      O X*************",
"** **o  **** +           ..X..  ...*************",
"**.*   ****.O.                .X..oO************",
"**********.o.X                   oXo********  **",
"********** .X                     o@********* **",
"********** X.                     oX ********* *",
"**********.X. .                   oX. **********",
"**********+.+X                    o.. **********",
"*********.oo     o     ....X      X @ *****  ***",
"*********XX      o     .Xo  ...    o% ****** ***",
"*********OX       X.  %%.X    o    X@X******  **",
"*****. **.X.       XX Oo.O.   .    X#X****X*****",
"*****X****o+        .XO+.o.X  X    .+*****#*****",
"*****.***  O         .o@$o$.X.     X#O****@*****",
"*********  o         . . XO        XOX***++*****",
"********X  O.        .  X X        #o** .O******",
"********o  XX        X  .X         XX*  o+******",
"********X.  .         .X          X... Xo*******",
"******** .   .@       ..         .O X.oX********",
"******** . **...     oO          .@ o **********",
"********@. ***X..              .O&oOX***********",
"********.o ****.XX+X.         oO+#Xo************",
"********oo.*****.XO...  ..X..oX o.**************",
"*********#o****** XO++.X    OXX*****************",
"*********o.o********#o+.XoXX+*******************",
"**********..**********.ooOoOo*******************",
"*********** O  ****************   **************",
"************** *************    ****************",
"************.@************** *******************",
"*************#.*********************************",
"*************** .*******************************",
"************************************************"
};
