/* XPM */
static char *result[] = {
/* columns rows colors chars-per-pixel */
"48 48 8 1 ",
"  c #121217",
". c #402751",
"X c #579339",
"o c #75A743",
"O c #923BCC",
"+ c #ED49F2",
"@ c #F873FF",
"# c #EBEDE9",
/* pixels */
"XXXXXXXXXXXXXXXXXXXXXXXXXXXXXXXXX+++++++++XXXXXX",
"XX.ooooooooooooooooooooo oooooo+++++++++++++oooX",
"Xo..oooooooooooooooooooo ooooo+++++++++++++++ooo",
"Xoo.Ooooooooooooooooooo @ oooo+++++++++++++++ooo",
"XoooOOooooooooooooo     O    +++++++++++++++++oo",
"XooooOOooooooooo   #####+++##   ++++++++++++++oo",
"Xooooo++oooooo  ###          ###  +++++++++++++o",
"Xoooooo++oooo ###              #++ ++++++++++++o",
"XoooooooOO   ##                  ++  ++++++++++o",
"XooooooOOOO##                      ++ +++++++++o",
"XooooOOO O##                        ++ ++++++++o",
"XoooOOOO ##                          ++ ++++++oo",
"XoooOOOO #                            + ++++++oo",
"XooOOOO #                              + ++++ooo",
"XooOOO ##                              ++ +++ooo",
"XoOOOO #                                + ++oooo",
"XoOOO ##                                ++ ooooo",
"XoOOO #                                  + ooooo",
"XoOOO #                                  + ooooo",
"XoOO #                                    + oooo",
"XooO #                                    + oooo",
"XooO #                                    O oooo",
"Xooo #                                    O oooo",
"Xoo  #                                    O  ooo",
"X  @O+                                    OO@  o",
"Xoo  +                                    O  ooo",
"Xooo +                                    O Oooo",
"Xooo +                                    O OOoo",
"Xooo +                                    O OOoo",
"Xoooo +                                  O OOOOo",
"Xoooo +                                  O OOOOo",
"Xoooo ++                                OO OOOOo",
"Xooo++ +                                O OOOOOo",
"Xooo++ ++                              OO OOOOoo",
"Xoo++++ +                              O OOOOOoo",
"Xoo+++++ +                            O OOOOOooo",
"Xoo+++++ ++                          OO OOOooooo",
"Xoo++++++ ++                        OO. oooooooo",
"Xooo++++++ ++                      OO...oooooooo",
"Xooo+++++++  ++                  OO   ..Oooooooo",
"Xoooo++++++++ +++              OOO oooooO+oooooo",
"Xoooooo++++ooo  OOO          OOO  ooooooo++ooooo",
"Xooooooooooooooo   OOOOOOOOOO   oooooooooo++oooo",
"Xoooooooooooooooooo     O    oooooooooooooo++ooo",
"Xoooooooooooooooooooooo @ ooooooooooooooooooOOoo",
"Xooooooooooooooooooooooo ooooooooooooooooooooOOo",
"Xooooooooooooooooooooooo ooooooooooooooooooooooo",
"XXoooooooooooooooooooooooooooooooooooooooooooooX"
};
