/* XPM */
static char *_fda3e658cb24f7a8a9d98511a7e0f3fLlyVy03zA8B7GRyz[] = {
/* columns rows colors chars-per-pixel */
"16 16 12 1 ",
"  c None",
". c black",
"X c #2A2929",
"o c gray23",
"O c #734116",
"+ c gray38",
"@ c #717171",
"# c #8A5221",
"$ c #C2AE2F",
"% c #FFE024",
"& c #F7DE47",
"* c gray60",
/* pixels */
"                ",
"                ",
"    .......     ",
"   .##OOOOO.    ",
"   .#++X++O.    ",
"   .#+#oO+O.    ",
"   .#+#oO+O.    ",
"   .#+#oO+O.    ",
"   .#*@@@*O.    ",
"   .##*&*OO.    ",
"   .##&$%OO.    ",
"   .##&%$OO.    ",
"   .#####OO.    ",
"    .......     ",
"                ",
"                "
};
