/* XPM */
static char *c139e87a966f4506d73400d3760eeb68lZxBsKLZqTW05bA7[] = {
/* columns rows colors chars-per-pixel */
"16 16 8 1 ",
"  c #2E2E2D",
". c #353535",
"X c #4E4C4C",
"o c gray34",
"O c #5D5C5C",
"+ c #666363",
"@ c #6A6767",
"# c #757474",
/* pixels */
"O#@@@#####OO@@##",
"OOOOOOOOOOOOOOO#",
"#OOOOO....+OOOO@",
"#OOO........OXO@",
"@OO...    ...Oo@",
"@OO..      ..Oo@",
"@O..        ..O@",
"#O..        ..OO",
"@O..        ..O#",
"#O..        ..O#",
"OOO..      ..OOO",
"OOO...    ...XOO",
"@OOO........oOO#",
"#OOoOO....XXOOO#",
"#OOOOOOOOOOOOOO#",
"##@O@##@OOOO@#@#"
};
