/* XPM */
static char *_c03e8a043fa4b87f3c2b6873db61c843AxOkQ8U3JNQZQtl[] = {
/* columns rows colors chars-per-pixel */
"16 16 6 1 ",
"  c #4E4C4C",
". c gray34",
"X c #5D5C5C",
"o c #666363",
"O c #6A6767",
"+ c #757474",
/* pixels */
"X+OOO+++++XXOO++",
"XXXXXXXXXXXXXXX+",
"+XXXXXXXXXoXXXXO",
"+XXX. XXXoXXX XO",
"OXX XXXXoXXXXX.O",
"OXXXX.XXXXX.XX.O",
"OXXXXXXXXXXXXXXO",
"+XXXXXXXXXXXoXXX",
"OXXooXXXX XXXoX+",
"+XXXXXX. XXXXXX+",
"XXXXXX.XXXXXXXXX",
"XXX XX.XXXXX. XX",
"OXXXXX.XoXXX.XX+",
"+XX.XXXXXX  XXX+",
"+XXXXXXXXXXXXXX+",
"++OXO++OXXXXO+O+"
};
