/* XPM */
static char *result[] = {
/* columns rows colors chars-per-pixel */
"48 48 17 1 ",
"  c #121217",
". c #10141F",
"X c #151D28",
"o c #1D1D2D",
"O c #341C27",
"+ c #172038",
"@ c #202E37",
"# c #602C2C",
"$ c #2F2F42",
"% c #253A5E",
"& c #414856",
"* c #577277",
"= c #884B2B",
"- c #468232",
"; c #579339",
": c #75A743",
"> c #3C5E8B",
/* pixels */
";;;;;;;;;;;;;;;;;;;;;;;;;;;;;;;;;;;;;;;;;;;;;;;;",
";;:::::::::::::::::::::::::::::::::::::::::::::;",
";:::::::::::::::::::::::::::::::::::::::::::::::",
";:::::::::::::::::::....:...::::::::::::::::::::",
";:::::::::::::::::..&&o...&&.:..::::::::::::::::",
";::::::::::::::::.o&$o$$$$o$&.&.::::::::::::::::",
";::::::::::::::..$$$$$o&&o$$$o&.::::::::::::::::",
";::::::::::::::.o$o$$o&$$&o$$$$.::::::::::::::::",
";::::::::::::::.ooo$$$$$$$$$$oo..:::::::::::::::",
";::::::::::::::..$$$o$$$$o$$o&&o.:::::::::::::::",
";::::::::::::::.o$&$o$$o$o$$&$$o.:::::::::::::::",
";::::::::::::::.o&o$$$$o$$$o&&o.::::::::::::::::",
";:::::::::::::::.oo$&$$$$&&$ooo.::::::::::::::::",
";:::::::::::::::.$$$o&&$$oo$oo.:::::::::::::::::",
";::::::::::::::O#o$$$oo$$$$$$O#O::::::::::::::::",
";::::::::::::::O=o$$$$$$$$$$oO=O::::::::::::::::",
";:::::::::::::::Ooo$o$$$$$o$o.O:::::::::::::::::",
";::::::::::::::::oooo$$o$$oo#.::::::::::::::::::",
";:::::::::::::....#ooooooooo#....:::::::::::::::",
";:::::::::::..XXX..ooooooooo..XXX..:::::::;;::::",
";::::::::::.XX@@X.X.#######.X.X@@XX.:::::;:;::::",
";::::::::::.X@@@@X@X..ooo..X@X@@@@X.::::::::::::",
";::::::::::.X@@@@@@@@@@@@@@@@@@@@@X.::::::::::::",
";:::::::::OO..X@@X@@@@@@@@@@@X@@X..OO:::::::::::",
";:::::::::O##O.X@X@@@@@@@@@@@X@X.O##O:::::::::::",
";:::::::::O==#O..X@@@@@@@@@@@X..O#==O:::::::::::",
";:::::::::O==##...@@@@@@@@@@@...##==O:::::::::::",
";:::::::::O===#...@@@@@@@@@@@...#===O:::::::::::",
";:::::::;:O===#OO.X@@@@@@@@@X.OO#===O:::::::::::",
";::::::;:;O===###.X@@@@@@@@@X.###===O:::::::::::",
";:::::::::O#==###OXXX@@@@@XXXO###==#O:::::::::::",
";::::::::::O#####OXX @@@@@ XXO#####O::::::::::::",
";:::::::::::O###OOX      .  XOO###O:::::::::::::",
";::::::::::::OOOOXX%.......%XXOOOO::::::::::::::",
";::::::::::::::OOXX%%+++++%%XXOO::::::::::::::::",
";::::::::::::::::.%%>%...%>%%.::::::::::::::::::",
";::::::::::::::::.>>>%.:.%>>>.::;;::::::::::::::",
";::::::::::::::::.>>>%.:.%>>>.::;:;:::::::::::::",
";:::::::::::::::.%>>%.:::.%>>%.:::::::::::::::::",
";:::::::::::::::.%>>%.:::.%>>%.:::::::::::::::::",
";:::::::::::::::.+%%+.---.+%%+.:::::::::::::::::",
";:::::::::::::---.....---.....---:::::::::::::::",
";::::::::::::---..**@.---.@**..---::::::::::::::",
";::::::::::::---.@@@..---..@@@.---::::::::::::::",
";::::::::::::---------------------::::::::::::::",
";:::::::::::::-------------------:::::::::::::::",
";:::::::::::::::::-----------:::::::::::::::::::",
";;:::::::::::::::::::::::::::::::::::::::::::::;"
};
