/* XPM */
static char *result[] = {
/* columns rows colors chars-per-pixel */
"48 48 20 1 ",
"  c #121217",
". c #10141F",
"X c #151D28",
"o c #1D1D2D",
"O c #341C27",
"+ c #172038",
"@ c #202E37",
"# c #602C2C",
"$ c #2F2F42",
"% c #253A5E",
"& c #414856",
"* c #577277",
"= c #884B2B",
"- c #CF573C",
"; c #468232",
": c #579339",
"> c #75A743",
", c #3C5E8B",
"< c #A8B5B2",
"1 c #EBEDE9",
/* pixels */
"::::::::::::::::::::::::::::::::::::::::::::::::",
"::>>>>>>>>>>>>>>>>>>>>>>>>>>>>>>>>>>>>>>>>>>>>>:",
":>>>>>>>>>>>>>>>>>---------->>>>>>>>>>>>>>>>>>>>",
":>>>>>>>>>>>>>-----...-....--->>>>>>>>>>>>>>>>>>",
":>>>>>>>>>>>>>-..-.&&...o&&..-->>>>>>>>>>>>>>>>>",
":>>>>>>>>>>>>>-.&.&$o$$$$o$&o.--->>>>>>>>>>>>>>>",
":>>>>>>>>>>>>>-.&o$$$o&&o$$$$$..->>>>>>>>>>>>>>>",
":>>>>>>>>>>>>--.$$$$o&$$&o$$o$o.->>>>>>>>>>>>>>>",
":>>>>>>>>>>>>-..oo$$$$$$$$$$$oo.->>>>>>>>>>>>>>>",
":>>>>>>>>>>>>-.o&&o$$o$$$$o$$$..->>>>>>>>>>>>>>>",
":>>>>>>>>>>>>-.o$$&$$$oo$$$oo$o.->>>>>>>>>>>>>>>",
":>>>>>>>>>>>>--.o&&oo&oo&&&oo&o.->>>>>>>>>>>>>>>",
":>>>>>>>>>>>>>-.ooooo...ooo.oo.-->>>>>>>>>>>>>>>",
":>>>>>>>>>>>>>--.ooo.OO........-->>>>>>>>>>>>>>>",
":>>>>>>>>>>>>>-O#...OOOOOO###O#O->>>>>>>>>>>>>>>",
":>>>>>>>>>>>>>-O=O#1 =###= 1#O=O->>>>>>>>>>>>>>>",
":>>>>>>>>>>>>>--O.#1  ###  1#.O-->>>>>>>>>>>>>>>",
":>>>>>>>>>>>>----.#=========#.---->>>>>>>>>>>>>>",
":>>>>>>>>>>---.....==$ooo$==.....--->>>>>>>>>>>>",
":>>>>>>>>>--..XXX..#=o###o=#..XXX..-->>>>>::>>>>",
":>>>>>>>>>-.XX@@X.X.##ooo##.X.X@@XX.->>>>:>:>>>>",
":>>>>>>>>>-.X@@@@X@X..ooo..X@X@@@@X.->>>>>>>>>>>",
":>>>>>>>>--.X@@@@@@@X#   #X@@@@@@@X.-->>>>>>>>>>",
":>>>>>>>>-OO..@@@X@@ X###X @@X@@@..OO->>>>>>>>>>",
":>>>>>>>>-O##O.X@X@@@ XXX @@@X@X.O##O->>>>>>>>>>",
":>>>>>>>>-O==#O..X@@@@@@@@@@@X..O#==O->>>>>>>>>>",
":>>>>>>>>-O==##...@@@<111<@@@...##==O->>>>>>>>>>",
":>>>>>>>>-O=#OO...@@<<111<<XXX..OO#=O->>>>>>>>>>",
":>>>>>>>:-O===#OO.X@@<<1<<@@X.OO#===O->>>>>>>>>>",
":>>>>>>:>-O#====#.X@@@@@@@@@X.#====#O->>>>>>>>>>",
":>>>>>>>>-O#=====OOXX@<1<@@XOO=====#O->>>>>>>>>>",
":>>>>>>>>--O#======O <111< O======#O-->>>>>>>>>>",
":>>>>>>>>>--O#===#       .   #===#O-->>>>>>>>>>>",
":>>>>>>>>>>--OO#===O.......O===#OO-->>>>>>>>>>>>",
":>>>>>>>>>>>---OOOOO%+++++%OOOOO--->>>>>>>>>>>>>",
":>>>>>>>>>>>>>---.%%,%...%,%%.--->>>>>>>>>>>>>>>",
":>>>>>>>>>>>>>>>-.,,,%.-.%,,,.->::>>>>>>>>>>>>>>",
":>>>>>>>>>>>>>>--.,,,%.-.%,,,.--:>:>>>>>>>>>>>>>",
":>>>>>>>>>>>>>>-.%,,%.---.%,,%.->>>>>>>>>>>>>>>>",
":>>>>>>>>>>>>>>-.%,,%.---.%,,%.->>>>>>>>>>>>>>>>",
":>>>>>>>>>>>>>>-.+%%+.-;-.+%%+.->>>>>>>>>>>>>>>>",
":>>>>>>>>>>>>>;--.....-;-.....--;>>>>>>>>>>>>>>>",
":>>>>>>>>>>>>;;-..**@.-;-.@**..-;;>>>>>>>>>>>>>>",
":>>>>>>>>>>>>;;-.@@@..-;-..@@@.-;;>>>>>>>>>>>>>>",
":>>>>>>>>>>>>;;;;;;;;;;;;;;;;;;;;;>>>>>>>>>>>>>>",
":>>>>>>>>>>>>>;;;;;;;;;;;;;;;;;;;>>>>>>>>>>>>>>>",
":>>>>>>>>>>>>>>>>>;;;;;;;;;;;>>>>>>>>>>>>>>>>>>>",
"::>>>>>>>>>>>>>>>>>>>>>>>>>>>>>>>>>>>>>>>>>>>>>:"
};
