/* XPM */
static char *_72e7290622048049a02cf8d70a0e0d0bdcnBTdsXcJQncJD[] = {
/* columns rows colors chars-per-pixel */
"48 48 45 1 ",
"  c black",
". c gray3",
"X c #101010",
"o c #181818",
"O c #202020",
"+ c #282828",
"@ c #2D2D2D",
"# c gray19",
"$ c #353535",
"% c gray22",
"& c gray24",
"* c gray25",
"= c gray27",
"- c #484848",
"; c gray30",
": c #515151",
"> c #555555",
", c gray35",
"< c #5D5D5D",
"1 c gray38",
"2 c #656565",
"3 c DimGray",
"4 c #6D6D6D",
"5 c #717171",
"6 c gray46",
"7 c #797979",
"8 c #7C7C7C",
"9 c #818181",
"0 c #848484",
"q c #898989",
"w c gray55",
"e c gray57",
"r c gray58",
"t c gray60",
"y c gray61",
"u c gray63",
"i c #A4A4A4",
"p c #A9A9A9",
"a c #ACACAC",
"s c #B4B4B4",
"d c #B9B9B9",
"f c #BCBCBC",
"g c gray77",
"h c gainsboro",
"j c white",
/* pixels */
"jjjjjjjjjjjjjjjjjjjjjjjjjjjjjjjjjjjjjjjjjjjjjjjj",
"jjjjjjjjjjjjjjjjjjjjjjjjjjjjjjjjjjjjjjjjjjjjjjjj",
"jjjjjjjjjjjjjjjjjjjjj  .X. jjjjjjjjjjjjjjjjjjjjj",
"jjjjjjjjjjjjjjjjjjjj X$@@=X.jjjjjjjjjjjjjjjjjjjj",
"jjjjjjjjjjjjjjjjjjjjX;;;&$=.jjjjjjjjjjjjjjjjjjjj",
"jjjjjjjjjjjjjjjjjjjj ==$@@&Xjjjjjjjjjjjjjjjjjjjj",
"jjjjjjjjjjjjjjjjjjjjX+#X oX jjjjjjjjjjjjjjjjjjjj",
"jjjjjjjjjjjjjjj.+#.  O%==oo      jjjjjjjjjjjjjjj",
"jjjjjjjjjjjX. ++rwwiX;=;2$@oaw88     jjjjjjjjjjj",
"jjjjjjjjj. 0rg0080wr+;;=;&&X0isfyrry8  jjjjjjjjj",
"jjjjjj.. .0yfr0000r8o$&<$;>owr08ww00yy..  jjjjjj",
"jjjjj.:X08yg08000wrr+;;$&==Xw0wiyry0yafr : jjjjj",
"jjjjj ,Orahw0088wwgso@$$@$$ 0ww8080yw80aX:.jjjjj",
"jjjjj oOwfw88880yyg0o==$$;$Xwrww8w0rrirfOOojjjjj",
"jjjjj+,ofsy0000ryy00 @&&&;&.rw0irrw000yr.3.jjjjj",
"jjjjj ,#sfiwrrr0iyw8 . $;X. 0rwrwrs0888yo5Xjjjjj",
"jjjjjo1#www80rryy+ooOX.oXO.+..ory0ywr880X7+jjjjj",
"jjjjjX:Orww0y0y0 XettO=&@=X9q7..0w000w80o5+jjjjj",
"jjjjj :Xfyrr88rro9d79o$4>2oe753X8r808wsy.,Ojjjjj",
"jjjjj :Xsr0w88rfO3e39#84<;#7593 0w00wwwi.1Ojjjjj",
"jjjjj XOww08r0rroq779o&2;< q977.r8yw880s X+jjjjj",
"jjjjjX3.+r800a0+X99979O$< q9e37.+0w0080+.,Ojjjjj",
"jjjjj.,3O008wy8%e7u9ue%44o9q9q55X0r8080+:3ojjjjj",
"jjjjjX.3+0800iyot93uee%;4.59u593orw8080#:o*jjjjj",
"jjjjjj.7:80wrrwo*q999X>&>6 79t9 Xrr0800%,ojjjjjj",
"jjjjjjXOorwwr8wr#797uo&448 e3p9.y0y08yw#..jjjjjj",
"jjjjjXXo0sirw0wr%e77qO222;O73qq.w0iw0w0rX.#jjjjj",
"jjjjj 3Xry00w0wi+t95e39957qe7e9+88ar8w0y 1ojjjjj",
"jjjjj qorr80w0i0o7q75577qqt339qO00rww0wy 5ojjjjj",
"jjjjjo1o8y08rawr.7t757595t933u9+88swwr0r.3 jjjjj",
"jjjjjXXOi008rww0X.7e57q53t733t*X8ww0i0rw.o jjjjj",
"jjjjj.:o:r00ary0ywop3397qq55t+0w0r0ww0a O, jjjjj",
"jjjjj.:1Oi80wwr080yott7qqq99-88rw0ww0wa.:, jjjjj",
"jjjjjo 1.fa8ywr0880rX.%up:1%r88y0w8i8i0 1  jjjjj",
"jjjjjj.5,O00yr0r88000XXXo+or08yww00w0r ,,.jjjjjj",
"jjjjjj ,5.ay0w8iw000rw8yywrw8rrr0r0000 ,, jjjjjj",
"jjjjjj.,,.yr8rr0rwryriiyr00wrrrww0wry8 :3 jjjjjj",
"jjjjjjX.. 0s08r88w000rsirrryr8800wwa00  o jjjjjj",
"jjjjjj 3,. 8a0y08880rrr8wwwww808wwa80.X75Ojjjjjj",
"jjjjjj+X51.0wyrr8880ww8w0w8wiywriiw00.17*ojjjjjj",
"jjjjjjj%e,   Xrrywr0r0wywwwywwrwryX  X93Xjjjjjjj",
"jjjjjjjjo%OOXwwrya0rwraiyr08wywwwwrooX.Ojjjjjjjj",
"jjjjjjjjjjjjj+*#oo+oXX..O#+%Oo..XXojjjjjjjjjjjjj",
"jjjjjjjjjjjjjjjjjjjjjjjjjjjjjjjjjjjjjjjjjjjjjjjj",
"jjjjjjjjjjjjjjjjjjjjjjjjjjjjjjjjjjjjjjjjjjjjjjjj",
"jjjjjjjjjjjjjjjjjjjjjjjjjjjjjjjjjjjjjjjjjjjjjjjj",
"jjjjjjjjjjjjjjjjjjjjjjjjjjjjjjjjjjjjjjjjjjjjjjjj",
"jjjjjjjjjjjjjjjjjjjjjjjjjjjjjjjjjjjjjjjjjjjjjjjj"
};
