/* XPM */
static char *result[] = {
/* columns rows colors chars-per-pixel */
"48 48 7 1 ",
"  c #121217",
". c #402751",
"X c #579339",
"o c #75A743",
"O c #923BCC",
"+ c #ED49F2",
"@ c #EBEDE9",
/* pixels */
"XXXXXXXXXXXXXXXXXXXXXXXX XXXXXXXXX+++++XXXXXXXXX",
"XX.ooooooooooooooooooooo ooooooo+++++++++ooooooX",
"Xo..ooooooooooooooooooo . oooo+++++++++++++ooooo",
"Xoo.Ooooooooooooooooooo + ooo+++++++++++++++oooo",
"XoooOOooooooooooooo     O    +++++++++++++++oooo",
"XooooOOooooooooo   @@@@@+++@@   +++++++++++++ooo",
"Xooooo++oooooo  @@@          @@@  +++++++++++ooo",
"Xoooooo++oooo @@@              @++ +++++++++++oo",
"XoooooooOO   @@                  ++  +++++++++oo",
"XoooooOOOOO@@                      ++ ++++++++oo",
"XoooOOOO O@@                        ++ +++++++oo",
"XooOOOOO @@                          ++ ++++++oo",
"XooOOOOO @                            + +++++ooo",
"XoOOOOO @                              + ++++ooo",
"XoOOOO @@                              ++ ++oooo",
"XOOOOO @                                + ++oooo",
"XOOOO @@                                ++ ooooo",
"XOOOO @                                  + ooooo",
"XOOOO @                                  + ooooo",
"XOOO @                                    + oooo",
"XoOO @                                    + oooo",
"XoOO @                                    O oooo",
"XooO @                                    O oooo",
"Xo   @                                    O   oo",
"  .+O+                                    OO+.  ",
"Xo   +                                    O   oo",
"Xooo +                                    O oooo",
"Xooo +                                    O Oooo",
"Xooo +                                    O OOoo",
"Xoooo +                                  O OOOoo",
"Xoooo +                                  O OOOOo",
"Xooo+ ++                                OO OOOOo",
"Xoo+++ +                                O OOOOOo",
"Xoo+++ ++                              OO OOOOOo",
"Xo+++++ +                              O OOOOOoo",
"Xo++++++ +                            O OOOOOOoo",
"Xo++++++ ++                          OO OOOOOooo",
"Xo+++++++ ++                        OO. OOOooooo",
"Xoo+++++++ ++                      OO...oooooooo",
"Xoo++++++++  ++                  OO   ..Oooooooo",
"Xooo++++++++o +++              OOO oooooO+oooooo",
"Xooooo++++oooo  OOO          OOO  ooooooo++ooooo",
"Xooooooooooooooo   OOOOOOOOOO   oooooooooo++oooo",
"Xoooooooooooooooooo     O    oooooooooooooo++ooo",
"Xoooooooooooooooooooooo + ooooooooooooooooooOOoo",
"Xoooooooooooooooooooooo . oooooooooooooooooooOOo",
"Xooooooooooooooooooooooo ooooooooooooooooooooooo",
"XXoooooooooooooooooooooo ooooooooooooooooooooooX"
};
