/* XPM */
static char *result[] = {
/* columns rows colors chars-per-pixel */
"48 48 8 1 ",
"  c #121217",
". c #402751",
"X c #579339",
"o c #75A743",
"O c #923BCC",
"+ c #ED49F2",
"@ c #F873FF",
"# c #EBEDE9",
/* pixels */
"XXXXXXXXXXXXXXXXXXXXXXXXXXXXXXXXXXXXXXXXXXXXXXXX",
"XXoooooooooooooooooooooooooooooooooooooooooooooX",
"Xooooooooooooooooooooooooooooooooooooooooooooooo",
"Xooooooooooo.ooooooooooo ooooooooooooooooooooooo",
"Xooooooooooo.ooooooooooo ooooooooooooooooooooooo",
"Xoooooooooooo.oooooooooo ooooooooooooooooooooooo",
"XooooooooooooOooooooooo . oooooooooooooooooooooo",
"XoooooooooooooOoooXXooo O oooooooooooooooooooooo",
"XoooooooooooooOoooXoXoo O oooooooooooooooooooooo",
"XooooooooooooooOooooooo O oooooooooooooooooooooo",
"XooooooooooooooOooooooo O oooooooooooooooooooooo",
"XoooooooooooooooOoooooo @ oooooooooooooooooooooo",
"XoooooooooooooooOoooooo @ oooooooooooooooooooooo",
"XooooooooooooooooOooooo @ o+++++oooooooooooooooo",
"XooooooooooooooooOooooo @ +++++++ooooooooooooooo",
"Xooooooooooooooooo+oooo @ ++++++++oooooooooooooo",
"Xooooooooooooooooo+oooo @ +++++++++ooooooooooooo",
"Xoooooooooooooooooo+ooo + ++++++++++oooooooooooo",
"XooooooooooooooooOO+ooo + ++++++++++oooooooooooo",
"XoooooooooooooooOOOO@@+ O ++++++++++ooooooXXoooo",
"XooooooooooooooOOOOO@@  O  ++++++++ooooooXoXoooo",
"XooooooooooooooOOOO++@ ### +++++++oooooooooooooo",
"XoooooooooooooooOOO+  #O O@  ++++ooooooooooooooo",
"Xoooooooooooooo       @   @        ooooooooooooo",
"Xoooooooooo    .O@#++O@   @O+@@@@O.    ooooooooo",
"Xoooooooooooooo       @   @        ooooooooooooo",
"Xooooooooooooooo++++  @O O@  Ooooooooooooooooooo",
"Xooooooooooooooo++++++ @@@ OOOOooooooooooooooooo",
"XoooooooXooooooo++++++  O  OOOOooooooooooooooooo",
"XooooooXoXoooooo+++++++ O OOOOoooooooooooooooooo",
"Xoooooooooooooooo++++++ @ OOOooooooooooooooooooo",
"Xooooooooooooooooo+++++ @ @ooooooooooooooooooooo",
"Xoooooooooooooooooo+++o @ @ooooooooooooooooooooo",
"Xoooooooooooooooooooooo @ o@oooooooooooooooooooo",
"Xoooooooooooooooooooooo @ o@oooooooooooooooooooo",
"Xoooooooooooooooooooooo @ oo+ooooooooooooooooooo",
"Xoooooooooooooooooooooo @ oo+oooXXoooooooooooooo",
"Xoooooooooooooooooooooo @ ooo+ooXoXooooooooooooo",
"Xoooooooooooooooooooooo O ooo+oooooooooooooooooo",
"Xoooooooooooooooooooooo O oooo+ooooooooooooooooo",
"Xoooooooooooooooooooooo O oooo+ooooooooooooooooo",
"Xoooooooooooooooooooooo O ooooo+oooooooooooooooo",
"Xoooooooooooooooooooooo . ooooo+oooooooooooooooo",
"Xooooooooooooooooooooooo oooooooOooooooooooooooo",
"Xooooooooooooooooooooooo oooooooOooooooooooooooo",
"Xooooooooooooooooooooooo ooooooooOoooooooooooooo",
"XooooooooooooooooooooooooooooooooOoooooooooooooo",
"XXoooooooooooooooooooooooooooooooooooooooooooooX"
};
