/* XPM */
static char *result[] = {
/* columns rows colors chars-per-pixel */
"48 48 11 1 ",
"  c #10141F",
". c #172038",
"X c #253A5E",
"o c #468232",
"O c #579339",
"+ c #75A743",
"@ c #3C5E8B",
"# c #4F8FBA",
"$ c #73BED3",
"% c #A4DDDB",
"& c #EBEDE9",
/* pixels */
"OOOOOOOOOOOOOOOOOOOOOOOOOOOOOOOOOOOOOOOOOOOOOOOO",
"OO+++++++++++++++++++++++++++++++++++++++++++++O",
"O+++++++++++++++++++++++++++++++++++++++++++++++",
"O+++++++++++++++++++++++++++++++++++++++++++++++",
"O+++++++++++++++++++++++++++++++++++++++++++++++",
"O+++++++++++++++++++++++++++++++++++++++++++++++",
"O+++++++++++++++++++++++++++++++++++++++++++++++",
"O+++++++++++++++++OO++++++++++++++++++++++++++++",
"O+++++++++++++++++O+O+++++++++++++++++++++++++++",
"O+++++++++++++++++++++++++++++++++++++++++++++++",
"O+++++++++++++++++++++++++++++++++++++++++++++++",
"O++++++++++++++++++%%%%%%%%%%%++++++++++++++++++",
"O++++++++++++++++%%%         %%%++++++++++++++++",
"O+++++++++++++++%%  &&&%%%%%%  %%+++++++++++++++",
"O++++++++++++++%% &%.........%% %%++++++++++++++",
"O+++++++++++++%% &.............% %%+++++++++++++",
"O++++++++++%%%% &...............% %%%%++++++++++",
"O++++++++%%%   &.................%   %%%++++++++",
"O+++++++%%  #@ %.................% @#  %%+++++++",
"O+++++%%% #X@ %.......&%.%%%%.....% @X@ %%%O++++",
"O++++%%  #@@X %......&%#.%#.%.....% X@@#  %%++++",
"O+++%% $@@@@@ %..XXX&%#XXXX%%XXX..% @@@@## %%+++",
"O+++% $###@@@ %.XXX&%#XXXX%%XXXXX.% @@@@@@@ %+++",
"O++%% X@@@XXX %.XXX%%%%%X%%X%XXXX.% XXXXXXX %%++",
"O++% #######@ %..XXXXX%%X%%%%XXX..% @@@@@@@@ %++",
"O++% $####### #%%..XXX%%XXXXXX..%%# @@@@@@@# %++",
"O++% $#######@  ##%...##......%##  @####@@@# %++",
"O++% $#######X@X XX#%%%%%%%%%#XX XX@######@# %++",
"O++%% $####XX@####@XXX@X.X@@@@#####XX@####$ %%++",
"O+++% X#@XX@#######X@######@X########XX@#$@ %+++",
"O+++%% @X#########@##########@#########X$X %%+++",
"O++++% @X@$$#####@X##########@######$$@X@X %++++",
"O++++%% X@@@$$$$#X############X#$$$$@@@X@ %%++++",
"O+++++%% @@@@@@@@X@$$$$$$$$$$@X@@@@@@@@X %%+++++",
"O++++++%%  @@@@@@X@@@@@@@@@@@@X@@@@@@@  %%++++++",
"O+++++++%%%  @@@@X@@@@@@@@@@@@X@@@@@  %%%+++++++",
"O+++++++oo%%%   @X@@@@@@@@@@@@X@    %%%oo+++++++",
"O+++++++oooo%%%%                %%%%%oooo+++++++",
"O+++++++ooooooo%%%%%         %%%%oooooooo+++++++",
"O++++++++oooooooooo%%%%%%%%%%%oooooooooo++++++++",
"O+++++++++ooooooooooooooooooooooooooooo+++++++++",
"O+++++++++++ooooooooooooooooooooooooo+++++++++++",
"O+++++++++++++ooooooooooooooooooooo+++++++++++++",
"O+++++++++++++++++ooooooooooooo+++++++++++++++++",
"O+++++++++++++++++++++++++++++++++++++++++++++++",
"O+++++++++++++++++++++++++++++++++++++++++++++++",
"O+++++++++++++++++++++++++++++++++++++++++++++++",
"OO+++++++++++++++++++++++++++++++++++++++++++++O"
};
