/* XPM */
static char *result[] = {
/* columns rows colors chars-per-pixel */
"48 48 11 1 ",
"  c #10141F",
". c #172038",
"X c #253A5E",
"o c #468232",
"O c #579339",
"+ c #75A743",
"@ c #3C5E8B",
"# c #4F8FBA",
"$ c #73BED3",
"% c #A4DDDB",
"& c #EBEDE9",
/* pixels */
"OOOOOOOOOOOOOOOOOOOOOOOOOOOOOOOOOOOOOOOOOOOOOOOO",
"OO+++++++++++++++++++++++++++++++++++++++++++++O",
"O+++++++++++++++++++++++++++++++++++++++++++++++",
"O+++++++++++++++++++++++++++++++++++++++++++++++",
"O+++++++++++++++++++++++++++++++++++++++++++++++",
"O+++++++++++++++++++++++++++++++++++++++++++++++",
"O+++++++++++++++++++++++++++++++++++++++++++++++",
"O+++++++++++++++++OO++++++++++++++++++++++++++++",
"O+++++++++++++++++O+O+++++++++++++++++++++++++++",
"O+++++++++++++++++++++++++++++++++++++++++++++++",
"O+++++++++++++++++++++++++++++++++++++++++++++++",
"O++++++++++++++++++%%%%%%%%%%%++++++++++++++++++",
"O++++++++++++++++%%%         %%%++++++++++++++++",
"O+++++++++++++++%%  &&&%%%%%%  %%+++++++++++++++",
"O++++++++++++++%% &%.........%% %%++++++++++++++",
"O+++++++++++++%% &.............% %%+++++++++++++",
"O++++++++++%%%% &...............% %%%%++++++++++",
"O++++++++%%%   &.................%   %%%++++++++",
"O+++++++%%  #@ %.................% X@  %%+++++++",
"O+++++%%% #@@ %.......&%.%%%%.....% @## %%%O++++",
"O++++%%  XX@@ %......&%#.%#.%.....% @@@#  %%++++",
"O+++%% $#@@XX %..XXX&%#XXXX%%XXX..% @@@@@@ %%+++",
"O+++% $###@@@ %.XXX&%#XXXX%%XXXXX.% @@XXXXX %+++",
"O++%% $#####@ %.XXX%%%%%X%%X%XXXX.% XX@@@@@ %%++",
"O++% ####@XXX %..XXXXX%%X%%%%XXX..% @@@@@@@# %++",
"O++% X@@XX@## #%%..XXX%%XXXXXX..%%# @@@@@@@# %++",
"O++% X#######@  ##%...##......%##  X####@@@# %++",
"O++% X$######X@X XX#%%%%%%%%%#XX @#@XX@####X %++",
"O++%% $#####X@#####XXXXX.X@@@X@#######XX@#$ %%++",
"O+++% X$###X#########@X@######@#########XX@ %+++",
"O+++%% @#@X@##########@########@#######$#X %%+++",
"O++++% @@X@$$$########@########@####$$$@@X %++++",
"O++++%% @X@@@@$$$$###@##########@#$$@@@@@ %%++++",
"O+++++%% X@@@@@@@@$$#X#$$$$$$$$@X@@@@@@@ %%+++++",
"O++++++%%  @@@@@@@@@@X@@@@@@@@@@X@@@@@  %%++++++",
"O+++++++%%%  @@@@@@@@X@@@@@@@@@@X@@@  %%%+++++++",
"O+++++++oo%%%    @@@@X@@@@@@@@@@    %%%oo+++++++",
"O+++++++oooo%%%%%               %%%%%oooo+++++++",
"O+++++++oooooooo%%%%         %%%%oooooooo+++++++",
"O++++++++oooooooooo%%%%%%%%%%%oooooooooo++++++++",
"O+++++++++ooooooooooooooooooooooooooooo+++++++++",
"O+++++++++++ooooooooooooooooooooooooo+++++++++++",
"O+++++++++++++ooooooooooooooooooooo+++++++++++++",
"O+++++++++++++++++ooooooooooooo+++++++++++++++++",
"O+++++++++++++++++++++++++++++++++++++++++++++++",
"O+++++++++++++++++++++++++++++++++++++++++++++++",
"O+++++++++++++++++++++++++++++++++++++++++++++++",
"OO+++++++++++++++++++++++++++++++++++++++++++++O"
};
