/* XPM */
static char *result[] = {
/* columns rows colors chars-per-pixel */
"48 48 11 1 ",
"  c #10141F",
". c #172038",
"X c #253A5E",
"o c #468232",
"O c #579339",
"+ c #75A743",
"@ c #3C5E8B",
"# c #4F8FBA",
"$ c #73BED3",
"% c #A4DDDB",
"& c #EBEDE9",
/* pixels */
"OOOOOOOOOOOOOOOOOOOOOOOOOOOOOOOOOOOOOOOOOOOOOOOO",
"OO+++++++++++++++++++++++++++++++++++++++++++++O",
"O+++++++++++++++++++++++++++++++++++++++++++++++",
"O+++++++++++++++++++++++++++++++++++++++++++++++",
"O+++++++++++++++++++++++++++++++++++++++++++++++",
"O+++++++++++++++++++++++++++++++++++++++++++++++",
"O+++++++++++++++++++++++++++++++++++++++++++++++",
"O+++++++++++++++++OO++++++++++++++++++++++++++++",
"O+++++++++++++++++O+O+++++++++++++++++++++++++++",
"O+++++++++++++++++++++++++++++++++++++++++++++++",
"O++++++++++++++++++%%%%%%%%%%%++++++++++++++++++",
"O++++++++++++++++%%%         %%%++++++++++++++++",
"O+++++++++++++++%%  &&&%%%%%%  %%+++++++++++++++",
"O++++++++++++++%% &%.........%% %%++++++++++++++",
"O+++++++++++++%% &.............% %%+++++++++++++",
"O++++++++++%%%% &...............% %%%%++++++++++",
"O++++++++%%%   &.................%   %%%++++++++",
"O+++++++%%  @X %.................% @#  %%+++++++",
"O+++++%%% #@@ %.......&%.%%%%.....% @@# %%%+++++",
"O++++%%  @@@@ %......&%#.%#.%.....% @XXX  %%++++",
"O+++%% #@@@@@ %..XXX&%#XXXX%%XXX..% X@@@@# %%+++",
"O+++% #XXXX@@ %.XXX&%#XXXX%%XXXXX.% @@@@@@# %+++",
"O++%% $###@XX %.XXX%%%%%X%%X%XXXX.% @@@@@@# %%++",
"O++% $####### %..XXXXX%%X%%%%XXX..% XXX@@@@@ %++",
"O++% $####### #%%..XXX%%XXXXXX..%%# @@@XXXXX %++",
"O++% $######XX  ##%...##......%##  @####@@@X %++",
"O++% $####XX@##X XX#%%%%%%%%%#XX @########@X %++",
"O++%% $@XX@#######XXXX@X.X@@@X@##X@#######$ %%++",
"O+++% XX@#########X@######X#######X@#####$@ %+++",
"O+++%% X#$#######@@#######@########X@##$$X %%+++",
"O++++% X@@$$$###@X########@@########XX$@@X %++++",
"O++++%% @@@@@$$#X#########@X###$$$$$@X@@@ %%++++",
"O+++++%% @@@@@@@X@$$$$$$$$#X#$$@@@@@@X@@ %%+++++",
"O++++++%%  @@@@@X@@@@@@@@@@X@@@@@@@@@X  %%++++++",
"O+++++++%%%  @@@X@@@@@@@@@@X@@@@@@@@  %%%+++++++",
"O+++++++++%%%    @@@@@@@@@@X@@@@    %%%+++++++++",
"O++++++++ooo%%%%%               %%%%%ooo++++++++",
"O++++++++ooooooo%%%%         %%%%ooooooo++++++++",
"O++++++++oooooooooo%%%%%%%%%%%oooooooooo++++++++",
"O+++++++++ooooooooooooooooooooooooooooo+++++++++",
"O++++++++++ooooooooooooooooooooooooooo++++++++++",
"O++++++++++++ooooooooooooooooooooooo++++++++++++",
"O++++++++++++++ooooooooooooooooooo++++++++++++++",
"O++++++++++++++++++ooooooooooo++++++++++++++++++",
"O+++++++++++++++++++++++++++++++++++++++++++++++",
"O+++++++++++++++++++++++++++++++++++++++++++++++",
"O+++++++++++++++++++++++++++++++++++++++++++++++",
"OO+++++++++++++++++++++++++++++++++++++++++++++O"
};
