/* XPM */
static char *result[] = {
/* columns rows colors chars-per-pixel */
"48 48 11 1 ",
"  c #10141F",
". c #172038",
"X c #253A5E",
"o c #468232",
"O c #579339",
"+ c #75A743",
"@ c #3C5E8B",
"# c #4F8FBA",
"$ c #73BED3",
"% c #A4DDDB",
"& c #EBEDE9",
/* pixels */
"OOOOOOOOOOOOOOOOOOOOOOOOOOOOOOOOOOOOOOOOOOOOOOOO",
"OO+++++++++++++++++++++++++++++++++++++++++++++O",
"O+++++++++++++++++++++++++++++++++++++++++++++++",
"O+++++++++++++++++++++++++++++++++++++++++++++++",
"O+++++++++++++++++++++++++++++++++++++++++++++++",
"O+++++++++++++++++++++++++++++++++++++++++++++++",
"O+++++++++++++++++++++++++++++++++++++++++++++++",
"O+++++++++++++++++OO++++++++++++++++++++++++++++",
"O+++++++++++++++++O+O+++++++++++++++++++++++++++",
"O+++++++++++++++++++++++++++++++++++++++++++++++",
"O++++++++++++++++++%%%%%%%%%%%++++++++++++++++++",
"O++++++++++++++++%%%         %%%++++++++++++++++",
"O+++++++++++++++%%  &&&%%%%%%  %%+++++++++++++++",
"O++++++++++++++%% &%.........%% %%++++++++++++++",
"O+++++++++++++%% &.............% %%+++++++++++++",
"O++++++++++%%%% &...............% %%%%++++++++++",
"O++++++++%%%   &.................%   %%%++++++++",
"O+++++++%%  @@ %.................% @#  %%+++++++",
"O+++++%%% #@@ %.......&%.%%%%.....% @#@ %%%+++++",
"O++++%%  XX@@ %......&%#.%#.%.....% @@XX  %%++++",
"O+++%% $##@XX %..XXX&%#XXXX%%XXX..% XX@@@# %%+++",
"O+++% $###### %.XXX&%#XXXX%%XXXXX.% @@@@@@# %+++",
"O++%% $###### %.XXX%%%%%X%%X%XXXX.% @@@@@@# %%++",
"O++% $#####@X %..XXXXX%%X%%%%XXX..% X@@@@@@# %++",
"O++% ###@XXX@ #%%..XXX%%XXXXXX..%%# @XXXX@@@ %++",
"O++% X@@X@###X  ##%...##......%##  @####@XXX %++",
"O++% X#########X XX#%%%%%%%%%#XX @########@X %++",
"O++%% $#########X@@XXX@X.X@@@X@#X@########$ %%++",
"O+++% X$#######X@#######X########X#######$@ %+++",
"O+++%% @$$####X@########@#########@####$$X %%+++",
"O++++% @@@$##X@#########@##########X@$$@@X %++++",
"O++++%% @@@@X#$$$$######@######$$$$#X@@@@ %%++++",
"O+++++%% @@@X@@@@@$$$$$#@#$$$$$@@@@@X@@@ %%+++++",
"O++++++%%  @X@@@@@@@@@@@X@@@@@@@@@@@X@  %%++++++",
"O+++++++%%%  @@@@@@@@@@@X@@@@@@@@@@@  %%%+++++++",
"O+++++++++%%%    @@@@@@@X@@@@@@@    %%%+++++++++",
"O++++++++ooo%%%%%               %%%%%ooo++++++++",
"O++++++++ooooooo%%%%         %%%%ooooooo++++++++",
"O++++++++oooooooooo%%%%%%%%%%%oooooooooo++++++++",
"O+++++++++ooooooooooooooooooooooooooooo+++++++++",
"O++++++++++ooooooooooooooooooooooooooo++++++++++",
"O++++++++++++ooooooooooooooooooooooo++++++++++++",
"O++++++++++++++ooooooooooooooooooo++++++++++++++",
"O++++++++++++++++++ooooooooooo++++++++++++++++++",
"O+++++++++++++++++++++++++++++++++++++++++++++++",
"O+++++++++++++++++++++++++++++++++++++++++++++++",
"O+++++++++++++++++++++++++++++++++++++++++++++++",
"OO+++++++++++++++++++++++++++++++++++++++++++++O"
};
