/* XPM */
static char *bcbcf4bda8524096e81e18825f550c03AOCt5tyhSWFTD4MV[] = {
/* columns rows colors chars-per-pixel */
"48 48 11 1 ",
"  c black",
". c #191919",
"X c #282828",
"o c #373737",
"O c #525050",
"+ c gray50",
"@ c #8A8989",
"# c #A4A4A4",
"$ c #B3B2B2",
"% c #BBBBBB",
"& c white",
/* pixels */
"&&&&&&&&&&&&&&&&&&&&&&&&&&&&&&&&&&&&&&&&&&&&&&&&",
"&&&&&&&&&&&&&&&&&&&&&&&&&&&&&&&&&&&&&&&&&&&&&&&&",
"&&&&&&&&&&&&&&&&&&&&&&&&&&&&&&&&&&&&&&&&&&&&&&&&",
"&&&&&&&&&&&&&&&&&&&&&&&&&&&&&&&&&&&&&&&&&&&&&&&&",
"&&&&&&&&&&&&&&&&&&&&&&&&&&&&&&&&&&&&&&&&&&&&&&&&",
"&&&&&&&&&&&&&&&&&&&&&&&&&&&&&&&&&&&&&&&&&&&&&&&&",
"&&&&&&&&&&&&&&&&&&&&&&&&&&&&&&&&&&&&&&&&&&&&&&&&",
"&&&&&&&&&&&&&&&&&&&&&&&&&&&&&&&&&&&&&&&&&&&&&&&&",
"&&&&&&&&&&&&&&&&&&&&&&&&&&&&&&&&&&&&&&&&&&&&&&&&",
"&&&&&&&&&&&&&&&&&&&&&&&  &&&&&&&&&&&&&&&&&&&&&&&",
"&&&&&&&&&&&&&&&&&&&&&&&  &&&&&&&&&&&&&&&&&&&&&&&",
"&&&&&&&&&&&&&&&&&&&&&& $$ &&&&&&&&&&&&&&&&&&&&&&",
"&&&&&&&&&&&&&&&&&&&&& $$$# &&&&&&&&&&&&&&&&&&&&&",
"&&&&&&&&&&&&&&&&&&&&& %%%# &&&&&&&&&&&&&&&&&&&&&",
"&&&&&&&&&&&&&&&&&&&& %%%### &&&&&&&&&&&&&&&&&&&&",
"&&&&&&&&&&&&&&&&&&& %%%%%%#@ &&&&&&&&&&&&&&&&&&&",
"&&&&&&&&&&&&&&&&&& %%#%#%#### &&&&&&&&&&&&&&&&&&",
"&&&&&&&&&&&&&&&&&&   %####@@  &&&&&&&&&&&&&&&&&&",
"&&&&&&&&&&&&&&&&&&& @@##@@@  &&&&&&&&&&&&&&&&&&&",
"&&&&&&&&&&&&&&&&&& %@%%%##@@@ &&&&&&&&&&&&&&&&&&",
"&&&&&&&&&&&&&&&&& %%%%%%%##@@@ &&&&&&&&&&&&&&&&&",
"&&&&&&&&&&&&&&&& %%%#%%#####@## &&&&&&&&&&&&&&&&",
"&&&&&&&&&&&&&&& %%%#%%%####@##@@ &&&&&&&&&&&&&&&",
"&&&&&&&&&&&&&&&    ###%@#@@@@    &&&&&&&&&&&&&&&",
"&&&&&&&&&&&&&&&&&&  #%@@@@@   &&&&&&&&&&&&&&&&&&",
"&&&&&&&&&&&&&&&&& ##@@@@#@@@@@ &&&&&&&&&&&&&&&&&",
"&&&&&&&&&&&&&&&& %%#@@@###@#@@@ &&&&&&&&&&&&&&&&",
"&&&&&&&&&&&&&&& %%###########@@@ &&&&&&&&&&&&&&&",
"&&&&&&&&&&&&&& %%##%%##%#@#@@@@@@ &&&&&&&&&&&&&&",
"&&&&&&&&&&&&& %%##%%#%%#####@@##@@ &&&&&&&&&&&&&",
"&&&&&&&&&&&&&     ###%##@@#@@      &&&&&&&&&&&&&",
"&&&&&&&&&&&&&&&& %%%###@@@@@@@  &&&&&&&&&&&&&&&&",
"&&&&&&&&&&&&&&& %#####@@@@@+@@@@ &&&&&&&&&&&&&&&",
"&&&&&&&&&&&&&& %###@#@@@@@@@+@@@@ &&&&&&&&&&&&&&",
"&&&&&&&&&&&&& %##@@@@ @@@ @@+++@@@ &&&&&&&&&&&&&",
"&&&&&&&&&&&&&     @                &&&&&&&&&&&&&",
"&&&&&&&&&&&&&&&&&   & ooX. &&&& &&&&&&&&&&&&&&&&",
"&&&&&&&&&&&&&&&&&&&&& OoXX &&&&&&&&&&&&&&&&&&&&&",
"&&&&&&&&&&&&&&&&&&&&& OooX &&&&&&&&&&&&&&&&&&&&&",
"&&&&&&&&&&&&&&&&&&&& OoOoX. &&&&&&&&&&&&&&&&&&&&",
"&&&&&&&&&&&&&&&&&&& Oo o X . &&&&&&&&&&&&&&&&&&&",
"&&&&&&&&&&&&&&&&&&&          &&&&&&&&&&&&&&&&&&&",
"&&&&&&&&&&&&&&&&&&&&&&&&&&&&&&&&&&&&&&&&&&&&&&&&",
"&&&&&&&&&&&&&&&&&&&&&&&&&&&&&&&&&&&&&&&&&&&&&&&&",
"&&&&&&&&&&&&&&&&&&&&&&&&&&&&&&&&&&&&&&&&&&&&&&&&",
"&&&&&&&&&&&&&&&&&&&&&&&&&&&&&&&&&&&&&&&&&&&&&&&&",
"&&&&&&&&&&&&&&&&&&&&&&&&&&&&&&&&&&&&&&&&&&&&&&&&",
"&&&&&&&&&&&&&&&&&&&&&&&&&&&&&&&&&&&&&&&&&&&&&&&&"
};
